<svg id="my-svg" width="100%" xmlns="http://www.w3.org/2000/svg" xmlns:xlink="http://www.w3.org/1999/xlink" class="classDiagram" style="max-width: 1081.04px; background-color: transparent;" viewBox="0 0 1081.0390625 613" role="graphics-document document" aria-roledescription="class"><style>#my-svg{font-family:"trebuchet ms",verdana,arial,sans-serif;font-size:16px;fill:#333;}@keyframes edge-animation-frame{from{stroke-dashoffset:0;}}@keyframes dash{to{stroke-dashoffset:0;}}#my-svg .edge-animation-slow{stroke-dasharray:9,5!important;stroke-dashoffset:900;animation:dash 50s linear infinite;stroke-linecap:round;}#my-svg .edge-animation-fast{stroke-dasharray:9,5!important;stroke-dashoffset:900;animation:dash 20s linear infinite;stroke-linecap:round;}#my-svg .error-icon{fill:#552222;}#my-svg .error-text{fill:#552222;stroke:#552222;}#my-svg .edge-thickness-normal{stroke-width:1px;}#my-svg .edge-thickness-thick{stroke-width:3.5px;}#my-svg .edge-pattern-solid{stroke-dasharray:0;}#my-svg .edge-thickness-invisible{stroke-width:0;fill:none;}#my-svg .edge-pattern-dashed{stroke-dasharray:3;}#my-svg .edge-pattern-dotted{stroke-dasharray:2;}#my-svg .marker{fill:#333333;stroke:#333333;}#my-svg .marker.cross{stroke:#333333;}#my-svg svg{font-family:"trebuchet ms",verdana,arial,sans-serif;font-size:16px;}#my-svg p{margin:0;}#my-svg g.classGroup text{fill:#9370DB;stroke:none;font-family:"trebuchet ms",verdana,arial,sans-serif;font-size:10px;}#my-svg g.classGroup text .title{font-weight:bolder;}#my-svg .cluster-label text{fill:#333;}#my-svg .cluster-label span{color:#333;}#my-svg .cluster-label span p{background-color:transparent;}#my-svg .cluster rect{fill:#ffffde;stroke:#aaaa33;stroke-width:1px;}#my-svg .cluster text{fill:#333;}#my-svg .cluster span{color:#333;}#my-svg .nodeLabel,#my-svg .edgeLabel{color:#131300;}#my-svg .noteLabel .nodeLabel,#my-svg .noteLabel .edgeLabel{color:black;}#my-svg .edgeLabel .label rect{fill:#ECECFF;}#my-svg .label text{fill:#131300;}#my-svg .labelBkg{background:#ECECFF;}#my-svg .edgeLabel .label span{background:#ECECFF;}#my-svg .classTitle{font-weight:bolder;}#my-svg .node rect,#my-svg .node circle,#my-svg .node ellipse,#my-svg .node polygon,#my-svg .node path{fill:#ECECFF;stroke:#9370DB;stroke-width:1;}#my-svg .divider{stroke:#9370DB;stroke-width:1;}#my-svg g.clickable{cursor:pointer;}#my-svg g.classGroup rect{fill:#ECECFF;stroke:#9370DB;}#my-svg g.classGroup line{stroke:#9370DB;stroke-width:1;}#my-svg .classLabel .box{stroke:none;stroke-width:0;fill:#ECECFF;opacity:0.5;}#my-svg .classLabel .label{fill:#9370DB;font-size:10px;}#my-svg .relation{stroke:#333333;stroke-width:1;fill:none;}#my-svg .dashed-line{stroke-dasharray:3;}#my-svg .dotted-line{stroke-dasharray:1 2;}#my-svg [id$="-compositionStart"],#my-svg .composition{fill:#333333!important;stroke:#333333!important;stroke-width:1;}#my-svg [id$="-compositionEnd"],#my-svg .composition{fill:#333333!important;stroke:#333333!important;stroke-width:1;}#my-svg [id$="-dependencyStart"],#my-svg .dependency{fill:#333333!important;stroke:#333333!important;stroke-width:1;}#my-svg [id$="-dependencyEnd"],#my-svg .dependency{fill:#333333!important;stroke:#333333!important;stroke-width:1;}#my-svg [id$="-extensionStart"],#my-svg .extension{fill:transparent!important;stroke:#333333!important;stroke-width:1;}#my-svg [id$="-extensionEnd"],#my-svg .extension{fill:transparent!important;stroke:#333333!important;stroke-width:1;}#my-svg [id$="-aggregationStart"],#my-svg .aggregation{fill:transparent!important;stroke:#333333!important;stroke-width:1;}#my-svg [id$="-aggregationEnd"],#my-svg .aggregation{fill:transparent!important;stroke:#333333!important;stroke-width:1;}#my-svg [id$="-lollipopStart"],#my-svg .lollipop{fill:#ECECFF!important;stroke:#333333!important;stroke-width:1;}#my-svg [id$="-lollipopEnd"],#my-svg .lollipop{fill:#ECECFF!important;stroke:#333333!important;stroke-width:1;}#my-svg .edgeTerminals{font-size:11px;line-height:initial;}#my-svg .classTitleText{text-anchor:middle;font-size:18px;fill:#333;}#my-svg .edgeLabel[data-look="neo"]{background-color:rgba(232,232,232, 0.8);text-align:center;}#my-svg .edgeLabel[data-look="neo"] p{background-color:rgba(232,232,232, 0.8);}#my-svg .edgeLabel[data-look="neo"] rect{opacity:0.5;background-color:rgba(232,232,232, 0.8);fill:rgba(232,232,232, 0.8);}#my-svg .label-icon{display:inline-block;height:1em;overflow:visible;vertical-align:-0.125em;}#my-svg .node .label-icon path{fill:currentColor;stroke:revert;stroke-width:revert;}#my-svg .node .neo-node{stroke:#9370DB;}#my-svg [data-look="neo"].node rect,#my-svg [data-look="neo"].cluster rect,#my-svg [data-look="neo"].node polygon{stroke:#9370DB;filter:drop-shadow(1px 2px 2px rgba(185, 185, 185, 1));}#my-svg [data-look="neo"].swimlane.cluster rect{filter:none;}#my-svg [data-look="neo"].node path{stroke:#9370DB;stroke-width:1px;}#my-svg [data-look="neo"].node .outer-path{filter:drop-shadow(1px 2px 2px rgba(185, 185, 185, 1));}#my-svg [data-look="neo"].node .neo-line path{stroke:#9370DB;filter:none;}#my-svg [data-look="neo"].node circle{stroke:#9370DB;filter:drop-shadow(1px 2px 2px rgba(185, 185, 185, 1));}#my-svg [data-look="neo"].node circle .state-start{fill:#000000;}#my-svg [data-look="neo"].icon-shape .icon{fill:#9370DB;filter:drop-shadow(1px 2px 2px rgba(185, 185, 185, 1));}#my-svg [data-look="neo"].icon-shape .icon-neo path{stroke:#9370DB;filter:drop-shadow(1px 2px 2px rgba(185, 185, 185, 1));}#my-svg :root{--mermaid-font-family:"trebuchet ms",verdana,arial,sans-serif;}</style><g><defs><marker id="my-svg_class-aggregationStart" class="marker aggregation class" refX="18" refY="7" markerWidth="190" markerHeight="240" orient="auto"><path d="M 18,7 L9,13 L1,7 L9,1 Z"/></marker></defs><defs><marker id="my-svg_class-aggregationEnd" class="marker aggregation class" refX="1" refY="7" markerWidth="20" markerHeight="28" orient="auto"><path d="M 18,7 L9,13 L1,7 L9,1 Z"/></marker></defs><defs><marker id="my-svg_class-aggregationStart-margin" class="marker aggregation class" refX="15" refY="7" markerWidth="190" markerHeight="240" orient="auto" markerUnits="userSpaceOnUse"><path d="M 18,7 L9,13 L1,7 L9,1 Z" style="stroke-width: 2;"/></marker></defs><defs><marker id="my-svg_class-aggregationEnd-margin" class="marker aggregation class" refX="1" refY="7" markerWidth="20" markerHeight="28" orient="auto" markerUnits="userSpaceOnUse"><path d="M 18,7 L9,13 L1,7 L9,1 Z" style="stroke-width: 2;"/></marker></defs><defs><marker id="my-svg_class-extensionStart" class="marker extension class" refX="18" refY="7" markerWidth="20" markerHeight="28" orient="auto" markerUnits="userSpaceOnUse"><path d="M 1,7 L18,13 V 1 Z"/></marker></defs><defs><marker id="my-svg_class-extensionEnd" class="marker extension class" refX="1" refY="7" markerWidth="20" markerHeight="28" orient="auto"><path d="M 1,1 V 13 L18,7 Z"/></marker></defs><marker id="my-svg_class-extensionStart-margin" class="marker extension class" refX="18" refY="7" markerWidth="20" markerHeight="28" orient="auto" markerUnits="userSpaceOnUse" viewBox="0 0 20 14"><polygon points="10,7 18,13 18,1" style="stroke-width: 2; stroke-dasharray: 0;"/></marker><defs><marker id="my-svg_class-extensionEnd-margin" class="marker extension class" refX="9" refY="7" markerWidth="20" markerHeight="28" orient="auto" markerUnits="userSpaceOnUse" viewBox="0 0 20 14"><polygon points="10,1 10,13 18,7" style="stroke-width: 2; stroke-dasharray: 0;"/></marker></defs><defs><marker id="my-svg_class-compositionStart" class="marker composition class" refX="18" refY="7" markerWidth="190" markerHeight="240" orient="auto"><path d="M 18,7 L9,13 L1,7 L9,1 Z"/></marker></defs><defs><marker id="my-svg_class-compositionEnd" class="marker composition class" refX="1" refY="7" markerWidth="20" markerHeight="28" orient="auto"><path d="M 18,7 L9,13 L1,7 L9,1 Z"/></marker></defs><defs><marker id="my-svg_class-compositionStart-margin" class="marker composition class" refX="15" refY="7" markerWidth="190" markerHeight="240" orient="auto" markerUnits="userSpaceOnUse"><path viewBox="0 0 15 15" d="M 18,7 L9,13 L1,7 L9,1 Z" style="stroke-width: 0;"/></marker></defs><defs><marker id="my-svg_class-compositionEnd-margin" class="marker composition class" refX="3.5" refY="7" markerWidth="20" markerHeight="28" orient="auto" markerUnits="userSpaceOnUse"><path d="M 18,7 L9,13 L1,7 L9,1 Z" style="stroke-width: 0;"/></marker></defs><defs><marker id="my-svg_class-dependencyStart" class="marker dependency class" refX="6" refY="7" markerWidth="190" markerHeight="240" orient="auto"><path d="M 5,7 L9,13 L1,7 L9,1 Z"/></marker></defs><defs><marker id="my-svg_class-dependencyEnd" class="marker dependency class" refX="13" refY="7" markerWidth="20" markerHeight="28" orient="auto"><path d="M 18,7 L9,13 L14,7 L9,1 Z"/></marker></defs><defs><marker id="my-svg_class-dependencyStart-margin" class="marker dependency class" refX="4" refY="7" markerWidth="190" markerHeight="240" orient="auto" markerUnits="userSpaceOnUse"><path d="M 5,7 L9,13 L1,7 L9,1 Z" style="stroke-width: 0;"/></marker></defs><defs><marker id="my-svg_class-dependencyEnd-margin" class="marker dependency class" refX="16" refY="7" markerWidth="20" markerHeight="28" orient="auto" markerUnits="userSpaceOnUse"><path d="M 18,7 L9,13 L14,7 L9,1 Z" style="stroke-width: 0;"/></marker></defs><defs><marker id="my-svg_class-lollipopStart" class="marker lollipop class" refX="13" refY="7" markerWidth="190" markerHeight="240" orient="auto"><circle fill="transparent" cx="7" cy="7" r="6"/></marker></defs><defs><marker id="my-svg_class-lollipopEnd" class="marker lollipop class" refX="1" refY="7" markerWidth="190" markerHeight="240" orient="auto"><circle fill="transparent" cx="7" cy="7" r="6"/></marker></defs><defs><marker id="my-svg_class-lollipopStart-margin" class="marker lollipop class" refX="13" refY="7" markerWidth="190" markerHeight="240" orient="auto" markerUnits="userSpaceOnUse"><circle fill="transparent" cx="7" cy="7" r="6" stroke-width="2"/></marker></defs><defs><marker id="my-svg_class-lollipopEnd-margin" class="marker lollipop class" refX="1" refY="7" markerWidth="190" markerHeight="240" orient="auto" markerUnits="userSpaceOnUse"><circle fill="transparent" cx="7" cy="7" r="6" stroke-width="2"/></marker></defs><g class="root"><g class="clusters"/><g class="edgePaths"><path d="M243.656,481.972L251.307,487.977C258.958,493.982,274.26,505.991,288.563,511.995C302.865,518,316.167,518,322.818,518L329.469,518" id="my-svg-id_ExpressApp_TaskValidation_1" class="edge-thickness-normal edge-pattern-dashed relation" style=";;;" data-edge="true" data-et="edge" data-id="id_ExpressApp_TaskValidation_1" data-points="W3sieCI6MjQzLjY1NjI1LCJ5Ijo0ODEuOTcyNDIxMDMyNTQxMjZ9LHsieCI6Mjg5LjU2MjUsInkiOjUxOH0seyJ4IjozMzUuNDY4NzUsInkiOjUxOH1d" data-look="classic" marker-end="url(#my-svg_class-dependencyEnd)"/><path d="M243.656,297.028L251.307,291.023C258.958,285.018,274.26,273.009,300.198,267.005C326.135,261,362.708,261,380.995,261L399.281,261" id="my-svg-id_ExpressApp_TaskRepository_2" class="edge-thickness-normal edge-pattern-solid relation" style=";;;" data-edge="true" data-et="edge" data-id="id_ExpressApp_TaskRepository_2" data-points="W3sieCI6MjQzLjY1NjI1LCJ5IjoyOTcuMDI3NTc4OTY3NDU4NzR9LHsieCI6Mjg5LjU2MjUsInkiOjI2MX0seyJ4Ijo0MDUuMjgxMjUsInkiOjI2MX1d" data-look="classic" marker-end="url(#my-svg_class-dependencyEnd)"/><path d="M672.836,202.292L696.493,191.91C720.151,181.528,767.466,160.764,802.146,150.382C836.826,140,858.87,140,869.892,140L880.914,140" id="my-svg-id_TaskRepository_Task_3" class="edge-thickness-normal edge-pattern-solid relation" style=";;;" data-edge="true" data-et="edge" data-id="id_TaskRepository_Task_3" data-points="W3sieCI6NjcyLjgzNTkzNzUsInkiOjIwMi4yOTIyNDMzOTQ0ODg5fSx7IngiOjgxNC43ODEyNSwieSI6MTQwfSx7IngiOjg4Ni45MTQwNjI1LCJ5IjoxNDB9XQ==" data-look="classic" marker-end="url(#my-svg_class-dependencyEnd)"/><path d="M672.836,319.708L696.493,330.09C720.151,340.472,767.466,361.236,803.724,371.618C839.982,382,865.182,382,877.783,382L890.383,382" id="my-svg-id_TaskRepository_SqliteDatabase_4" class="edge-thickness-normal edge-pattern-solid relation" style=";;;" data-edge="true" data-et="edge" data-id="id_TaskRepository_SqliteDatabase_4" data-points="W3sieCI6NjcyLjgzNTkzNzUsInkiOjMxOS43MDc3NTY2MDU1MTEwN30seyJ4Ijo4MTQuNzgxMjUsInkiOjM4Mn0seyJ4Ijo4OTYuMzgyODEyNSwieSI6MzgyfV0=" data-look="classic" marker-end="url(#my-svg_class-dependencyEnd)"/></g><g class="edgeLabels"><g class="edgeLabel" transform="translate(289.5625, 518)"><g class="label" data-id="id_ExpressApp_TaskValidation_1" transform="translate(-20.90625, -12)"><foreignObject width="41.8125" height="24"><div xmlns="http://www.w3.org/1999/xhtml" class="labelBkg" style="display: table-cell; white-space: nowrap; line-height: 1.5; max-width: 200px; text-align: center;"><span class="edgeLabel"><p>valida</p></span></div></foreignObject></g></g><g class="edgeLabel" transform="translate(289.5625, 261)"><g class="label" data-id="id_ExpressApp_TaskRepository_2" transform="translate(-20.453125, -12)"><foreignObject width="40.90625" height="24"><div xmlns="http://www.w3.org/1999/xhtml" class="labelBkg" style="display: table-cell; white-space: nowrap; line-height: 1.5; max-width: 200px; text-align: center;"><span class="edgeLabel"><p>utiliza</p></span></div></foreignObject></g></g><g class="edgeLabel" transform="translate(814.78125, 140)"><g class="label" data-id="id_TaskRepository_Task_3" transform="translate(-47.1328125, -12)"><foreignObject width="94.265625" height="24"><div xmlns="http://www.w3.org/1999/xhtml" class="labelBkg" style="display: table-cell; white-space: nowrap; line-height: 1.5; max-width: 200px; text-align: center;"><span class="edgeLabel"><p>cria e retorna</p></span></div></foreignObject></g></g><g class="edgeLabel" transform="translate(814.78125, 382)"><g class="label" data-id="id_TaskRepository_SqliteDatabase_4" transform="translate(-28.015625, -12)"><foreignObject width="56.03125" height="24"><div xmlns="http://www.w3.org/1999/xhtml" class="labelBkg" style="display: table-cell; white-space: nowrap; line-height: 1.5; max-width: 200px; text-align: center;"><span class="edgeLabel"><p>persiste</p></span></div></foreignObject></g></g></g><g class="nodes"><g class="node default" id="my-svg-classId-Task-0" data-look="classic" transform="translate(979.9765625, 140)"><g class="basic label-container outer-path"><path d="M-93.0625 -132 L93.0625 -132 L93.0625 132 L-93.0625 132" stroke="none" stroke-width="0" fill="#ECECFF" style=""/><path d="M-93.0625 -132 C-20.974596590837763 -132, 51.113306818324475 -132, 93.0625 -132 M-93.0625 -132 C-50.731894932491294 -132, -8.401289864982587 -132, 93.0625 -132 M93.0625 -132 C93.0625 -44.945852391497226, 93.0625 42.10829521700555, 93.0625 132 M93.0625 -132 C93.0625 -41.88104507517589, 93.0625 48.23790984964822, 93.0625 132 M93.0625 132 C42.88977762291079 132, -7.282944754178416 132, -93.0625 132 M93.0625 132 C39.66484140866639 132, -13.732817182667219 132, -93.0625 132 M-93.0625 132 C-93.0625 66.90596222674532, -93.0625 1.811924453490633, -93.0625 -132 M-93.0625 132 C-93.0625 50.00495921463687, -93.0625 -31.99008157072626, -93.0625 -132" stroke="#9370DB" stroke-width="1.3" fill="none" stroke-dasharray="0 0" style=""/></g><g class="annotation-group text" transform="translate(0, -108)"/><g class="label-group text" transform="translate(-17.640625, -108)"><g class="label" style="font-weight: bolder" transform="translate(0,-12)"><foreignObject width="35.28125" height="24"><div xmlns="http://www.w3.org/1999/xhtml" style="display: table-cell; white-space: nowrap; line-height: 1.5; max-width: 80px; text-align: center;"><span class="nodeLabel markdown-node-label" style=""><p>Task</p></span></div></foreignObject></g></g><g class="members-group text" transform="translate(-81.0625, -60)"><g class="label" style="" transform="translate(0,-12)"><foreignObject width="80.5" height="24"><div xmlns="http://www.w3.org/1999/xhtml" style="display: table-cell; white-space: nowrap; line-height: 1.5; max-width: 129px; text-align: center;"><span class="nodeLabel markdown-node-label" style=""><p>+number id</p></span></div></foreignObject></g><g class="label" style="" transform="translate(0,12)"><foreignObject width="77.8125" height="24"><div xmlns="http://www.w3.org/1999/xhtml" style="display: table-cell; white-space: nowrap; line-height: 1.5; max-width: 129px; text-align: center;"><span class="nodeLabel markdown-node-label" style=""><p>+string title</p></span></div></foreignObject></g><g class="label" style="" transform="translate(0,36)"><foreignObject width="130.296875" height="24"><div xmlns="http://www.w3.org/1999/xhtml" style="display: table-cell; white-space: nowrap; line-height: 1.5; max-width: 175px; text-align: center;"><span class="nodeLabel markdown-node-label" style=""><p>+string description</p></span></div></foreignObject></g><g class="label" style="" transform="translate(0,60)"><foreignObject width="134.734375" height="24"><div xmlns="http://www.w3.org/1999/xhtml" style="display: table-cell; white-space: nowrap; line-height: 1.5; max-width: 173px; text-align: center;"><span class="nodeLabel markdown-node-label" style=""><p>+TaskStatus status</p></span></div></foreignObject></g><g class="label" style="" transform="translate(0,84)"><foreignObject width="144.484375" height="24"><div xmlns="http://www.w3.org/1999/xhtml" style="display: table-cell; white-space: nowrap; line-height: 1.5; max-width: 194px; text-align: center;"><span class="nodeLabel markdown-node-label" style=""><p>+TaskPriority priority</p></span></div></foreignObject></g><g class="label" style="" transform="translate(0,108)"><foreignObject width="121.40625" height="24"><div xmlns="http://www.w3.org/1999/xhtml" style="display: table-cell; white-space: nowrap; line-height: 1.5; max-width: 167px; text-align: center;"><span class="nodeLabel markdown-node-label" style=""><p>+string createdAt</p></span></div></foreignObject></g><g class="label" style="" transform="translate(0,132)"><foreignObject width="125.875" height="24"><div xmlns="http://www.w3.org/1999/xhtml" style="display: table-cell; white-space: nowrap; line-height: 1.5; max-width: 171px; text-align: center;"><span class="nodeLabel markdown-node-label" style=""><p>+string updatedAt</p></span></div></foreignObject></g></g><g class="methods-group text" transform="translate(-81.0625, 132)"/><g class="divider" style=""><path d="M-93.0625 -84 C-53.562961656065454 -83.99978777951192, -14.063423312130908 -83.99957555902384, 93.0625 -83.999 M-93.0625 -84 C-54.32225587987994 -83.99979185899734, -15.58201175975988 -83.99958371799468, 93.0625 -83.999" stroke="#9370DB" stroke-width="1.3" fill="none" stroke-dasharray="0 0" style=""/></g><g class="divider" style=""><path d="M-93.0625 108 C-47.33301454572861 108.00024569233287, -1.6035290914572187 108.00049138466574, 93.0625 108.001 M-93.0625 108 C-49.88915355252008 108.00023195887951, -6.715807105040156 108.000463917759, 93.0625 108.001" stroke="#9370DB" stroke-width="1.3" fill="none" stroke-dasharray="0 0" style=""/></g></g><g class="node default" id="my-svg-classId-TaskRepository-1" data-look="classic" transform="translate(539.05859375, 261)"><g class="basic label-container outer-path"><path d="M-133.77734375 -120 L133.77734375 -120 L133.77734375 120 L-133.77734375 120" stroke="none" stroke-width="0" fill="#ECECFF" style=""/><path d="M-133.77734375 -120 C-45.26109402981629 -120, 43.25515569036742 -120, 133.77734375 -120 M-133.77734375 -120 C-71.00470910382263 -120, -8.232074457645268 -120, 133.77734375 -120 M133.77734375 -120 C133.77734375 -61.72352655405946, 133.77734375 -3.447053108118922, 133.77734375 120 M133.77734375 -120 C133.77734375 -59.48197916584849, 133.77734375 1.0360416683030138, 133.77734375 120 M133.77734375 120 C33.702969043672525 120, -66.37140566265495 120, -133.77734375 120 M133.77734375 120 C34.066122063216554 120, -65.64509962356689 120, -133.77734375 120 M-133.77734375 120 C-133.77734375 49.627020862621166, -133.77734375 -20.74595827475767, -133.77734375 -120 M-133.77734375 120 C-133.77734375 33.53538978538232, -133.77734375 -52.92922042923536, -133.77734375 -120" stroke="#9370DB" stroke-width="1.3" fill="none" stroke-dasharray="0 0" style=""/></g><g class="annotation-group text" transform="translate(0, -96)"/><g class="label-group text" transform="translate(-59.4296875, -96)"><g class="label" style="font-weight: bolder" transform="translate(0,-12)"><foreignObject width="118.859375" height="24"><div xmlns="http://www.w3.org/1999/xhtml" style="display: table-cell; white-space: nowrap; line-height: 1.5; max-width: 150px; text-align: center;"><span class="nodeLabel markdown-node-label" style=""><p>TaskRepository</p></span></div></foreignObject></g></g><g class="members-group text" transform="translate(-121.77734375, -48)"><g class="label" style="" transform="translate(0,-12)"><foreignObject width="184.125" height="24"><div xmlns="http://www.w3.org/1999/xhtml" style="display: table-cell; white-space: nowrap; line-height: 1.5; max-width: 215px; text-align: center;"><span class="nodeLabel markdown-node-label" style=""><p>-SqliteDatabase database</p></span></div></foreignObject></g></g><g class="methods-group text" transform="translate(-121.77734375, 0)"><g class="label" style="" transform="translate(0,-12)"><foreignObject width="145.109375" height="24"><div xmlns="http://www.w3.org/1999/xhtml" style="display: table-cell; white-space: nowrap; line-height: 1.5; max-width: 187px; text-align: center;"><span class="nodeLabel markdown-node-label" style=""><p>+create(input) : Task</p></span></div></foreignObject></g><g class="label" style="" transform="translate(0,12)"><foreignObject width="118.421875" height="24"><div xmlns="http://www.w3.org/1999/xhtml" style="display: table-cell; white-space: nowrap; line-height: 1.5; max-width: 173px; text-align: center;"><span class="nodeLabel markdown-node-label" style=""><p>+findAll() : Task[]</p></span></div></foreignObject></g><g class="label" style="" transform="translate(0,36)"><foreignObject width="136.21875" height="24"><div xmlns="http://www.w3.org/1999/xhtml" style="display: table-cell; white-space: nowrap; line-height: 1.5; max-width: 186px; text-align: center;"><span class="nodeLabel markdown-node-label" style=""><p>+findById(id) : Task</p></span></div></foreignObject></g><g class="label" style="" transform="translate(0,60)"><foreignObject width="170.921875" height="24"><div xmlns="http://www.w3.org/1999/xhtml" style="display: table-cell; white-space: nowrap; line-height: 1.5; max-width: 212px; text-align: center;"><span class="nodeLabel markdown-node-label" style=""><p>+update(id, input) : Task</p></span></div></foreignObject></g><g class="label" style="" transform="translate(0,84)"><foreignObject width="146.328125" height="24"><div xmlns="http://www.w3.org/1999/xhtml" style="display: table-cell; white-space: nowrap; line-height: 1.5; max-width: 188px; text-align: center;"><span class="nodeLabel markdown-node-label" style=""><p>+delete(id) : boolean</p></span></div></foreignObject></g></g><g class="divider" style=""><path d="M-133.77734375 -72 C-50.178849930585955 -71.99968754614393, 33.41964388882809 -71.99937509228785, 133.77734375 -71.999 M-133.77734375 -72 C-70.17114485130904 -71.99976226841886, -6.564945952618061 -71.99952453683774, 133.77734375 -71.999" stroke="#9370DB" stroke-width="1.3" fill="none" stroke-dasharray="0 0" style=""/></g><g class="divider" style=""><path d="M-133.77734375 -24 C-55.28405050283908 -23.999706627104985, 23.20924274432184 -23.999413254209966, 133.77734375 -23.999 M-133.77734375 -24 C-28.31785324320454 -23.99960583949587, 77.14163726359092 -23.999211678991742, 133.77734375 -23.999" stroke="#9370DB" stroke-width="1.3" fill="none" stroke-dasharray="0 0" style=""/></g></g><g class="node default" id="my-svg-classId-TaskValidation-2" data-look="classic" transform="translate(539.05859375, 518)"><g class="basic label-container outer-path"><path d="M-203.58984375 -87 L203.58984375 -87 L203.58984375 87 L-203.58984375 87" stroke="none" stroke-width="0" fill="#ECECFF" style=""/><path d="M-203.58984375 -87 C-53.737440201368116 -87, 96.11496334726377 -87, 203.58984375 -87 M-203.58984375 -87 C-59.1256681517072 -87, 85.3385074465856 -87, 203.58984375 -87 M203.58984375 -87 C203.58984375 -43.885814469808686, 203.58984375 -0.7716289396173721, 203.58984375 87 M203.58984375 -87 C203.58984375 -18.265861861344078, 203.58984375 50.468276277311844, 203.58984375 87 M203.58984375 87 C48.59412059932174 87, -106.40160255135652 87, -203.58984375 87 M203.58984375 87 C43.541361957010935 87, -116.50711983597813 87, -203.58984375 87 M-203.58984375 87 C-203.58984375 34.34697030875893, -203.58984375 -18.306059382482147, -203.58984375 -87 M-203.58984375 87 C-203.58984375 37.50548556414021, -203.58984375 -11.989028871719583, -203.58984375 -87" stroke="#9370DB" stroke-width="1.3" fill="none" stroke-dasharray="0 0" style=""/></g><g class="annotation-group text" transform="translate(0, -63)"/><g class="label-group text" transform="translate(-55.4296875, -63)"><g class="label" style="font-weight: bolder" transform="translate(0,-12)"><foreignObject width="110.859375" height="24"><div xmlns="http://www.w3.org/1999/xhtml" style="display: table-cell; white-space: nowrap; line-height: 1.5; max-width: 146px; text-align: center;"><span class="nodeLabel markdown-node-label" style=""><p>TaskValidation</p></span></div></foreignObject></g></g><g class="members-group text" transform="translate(-191.58984375, -15)"/><g class="methods-group text" transform="translate(-191.58984375, 15)"><g class="label" style="" transform="translate(0,-12)"><foreignObject width="320.609375" height="24"><div xmlns="http://www.w3.org/1999/xhtml" style="display: table-cell; white-space: nowrap; line-height: 1.5; max-width: 347px; text-align: center;"><span class="nodeLabel markdown-node-label" style=""><p>+validateCreateTask(body) : CreateTaskInput</p></span></div></foreignObject></g><g class="label" style="" transform="translate(0,12)"><foreignObject width="327.75" height="24"><div xmlns="http://www.w3.org/1999/xhtml" style="display: table-cell; white-space: nowrap; line-height: 1.5; max-width: 356px; text-align: center;"><span class="nodeLabel markdown-node-label" style=""><p>+validateUpdateTask(body) : UpdateTaskInput</p></span></div></foreignObject></g><g class="label" style="" transform="translate(0,36)"><foreignObject width="212.109375" height="24"><div xmlns="http://www.w3.org/1999/xhtml" style="display: table-cell; white-space: nowrap; line-height: 1.5; max-width: 248px; text-align: center;"><span class="nodeLabel markdown-node-label" style=""><p>+parseTaskId(value) : number</p></span></div></foreignObject></g></g><g class="divider" style=""><path d="M-203.58984375 -39 C-115.01867036147361 -38.99978247644441, -26.44749697294722 -38.999564952888825, 203.58984375 -38.999 M-203.58984375 -39 C-69.77212547054921 -38.99967135463191, 64.04559280890157 -38.99934270926381, 203.58984375 -38.999" stroke="#9370DB" stroke-width="1.3" fill="none" stroke-dasharray="0 0" style=""/></g><g class="divider" style=""><path d="M-203.58984375 -15 C-97.91342123446167 -14.999740467351984, 7.763001281076669 -14.999480934703966, 203.58984375 -14.999 M-203.58984375 -15 C-59.08524532826377 -14.999645108528599, 85.41935309347247 -14.999290217057197, 203.58984375 -14.999" stroke="#9370DB" stroke-width="1.3" fill="none" stroke-dasharray="0 0" style=""/></g></g><g class="node default" id="my-svg-classId-ExpressApp-3" data-look="classic" transform="translate(125.828125, 389.5)"><g class="basic label-container outer-path"><path d="M-117.828125 -108 L117.828125 -108 L117.828125 108 L-117.828125 108" stroke="none" stroke-width="0" fill="#ECECFF" style=""/><path d="M-117.828125 -108 C-49.97034875241398 -108, 17.887427495172034 -108, 117.828125 -108 M-117.828125 -108 C-27.54724087519294 -108, 62.73364324961412 -108, 117.828125 -108 M117.828125 -108 C117.828125 -44.09614739484495, 117.828125 19.807705210310104, 117.828125 108 M117.828125 -108 C117.828125 -30.252383190340538, 117.828125 47.495233619318924, 117.828125 108 M117.828125 108 C57.92962587832183 108, -1.9688732433563416 108, -117.828125 108 M117.828125 108 C60.53325704921407 108, 3.2383890984281436 108, -117.828125 108 M-117.828125 108 C-117.828125 22.48290042860792, -117.828125 -63.03419914278416, -117.828125 -108 M-117.828125 108 C-117.828125 53.948512836808085, -117.828125 -0.10297432638382986, -117.828125 -108" stroke="#9370DB" stroke-width="1.3" fill="none" stroke-dasharray="0 0" style=""/></g><g class="annotation-group text" transform="translate(0, -84)"/><g class="label-group text" transform="translate(-46.6875, -84)"><g class="label" style="font-weight: bolder" transform="translate(0,-12)"><foreignObject width="93.375" height="24"><div xmlns="http://www.w3.org/1999/xhtml" style="display: table-cell; white-space: nowrap; line-height: 1.5; max-width: 128px; text-align: center;"><span class="nodeLabel markdown-node-label" style=""><p>ExpressApp</p></span></div></foreignObject></g></g><g class="members-group text" transform="translate(-105.828125, -36)"><g class="label" style="" transform="translate(0,-12)"><foreignObject width="113.984375" height="24"><div xmlns="http://www.w3.org/1999/xhtml" style="display: table-cell; white-space: nowrap; line-height: 1.5; max-width: 159px; text-align: center;"><span class="nodeLabel markdown-node-label" style=""><p>+GET /api/tasks</p></span></div></foreignObject></g><g class="label" style="" transform="translate(0,12)"><foreignObject width="135.328125" height="24"><div xmlns="http://www.w3.org/1999/xhtml" style="display: table-cell; white-space: nowrap; line-height: 1.5; max-width: 180px; text-align: center;"><span class="nodeLabel markdown-node-label" style=""><p>+GET /api/tasks/:id</p></span></div></foreignObject></g><g class="label" style="" transform="translate(0,36)"><foreignObject width="124.65625" height="24"><div xmlns="http://www.w3.org/1999/xhtml" style="display: table-cell; white-space: nowrap; line-height: 1.5; max-width: 167px; text-align: center;"><span class="nodeLabel markdown-node-label" style=""><p>+POST /api/tasks</p></span></div></foreignObject></g><g class="label" style="" transform="translate(0,60)"><foreignObject width="134.4375" height="24"><div xmlns="http://www.w3.org/1999/xhtml" style="display: table-cell; white-space: nowrap; line-height: 1.5; max-width: 179px; text-align: center;"><span class="nodeLabel markdown-node-label" style=""><p>+PUT /api/tasks/:id</p></span></div></foreignObject></g><g class="label" style="" transform="translate(0,84)"><foreignObject width="164.96875" height="24"><div xmlns="http://www.w3.org/1999/xhtml" style="display: table-cell; white-space: nowrap; line-height: 1.5; max-width: 210px; text-align: center;"><span class="nodeLabel markdown-node-label" style=""><p>+DELETE /api/tasks/:id</p></span></div></foreignObject></g></g><g class="methods-group text" transform="translate(-105.828125, 108)"/><g class="divider" style=""><path d="M-117.828125 -60 C-57.39915638815556 -59.99974357154282, 3.0298122236888787 -59.999487143085645, 117.828125 -59.999 M-117.828125 -60 C-61.02763924043289 -59.99975896889745, -4.2271534808657805 -59.999517937794906, 117.828125 -59.999" stroke="#9370DB" stroke-width="1.3" fill="none" stroke-dasharray="0 0" style=""/></g><g class="divider" style=""><path d="M-117.828125 84 C-56.93409575875524 84.00025840192755, 3.959933482489518 84.00051680385512, 117.828125 84.001 M-117.828125 84 C-32.72380785703153 84.00036113753463, 52.38050928593694 84.00072227506925, 117.828125 84.001" stroke="#9370DB" stroke-width="1.3" fill="none" stroke-dasharray="0 0" style=""/></g></g><g class="node default" id="my-svg-classId-SqliteDatabase-4" data-look="classic" transform="translate(979.9765625, 382)"><g class="basic label-container outer-path"><path d="M-83.59375 -60 L83.59375 -60 L83.59375 60 L-83.59375 60" stroke="none" stroke-width="0" fill="#ECECFF" style=""/><path d="M-83.59375 -60 C-43.450213682039355 -60, -3.306677364078709 -60, 83.59375 -60 M-83.59375 -60 C-31.701239069924235 -60, 20.19127186015153 -60, 83.59375 -60 M83.59375 -60 C83.59375 -17.497261708135568, 83.59375 25.005476583728864, 83.59375 60 M83.59375 -60 C83.59375 -24.077339201992594, 83.59375 11.845321596014813, 83.59375 60 M83.59375 60 C45.21955465587209 60, 6.845359311744176 60, -83.59375 60 M83.59375 60 C40.1560458771235 60, -3.2816582457529933 60, -83.59375 60 M-83.59375 60 C-83.59375 15.919724721098618, -83.59375 -28.160550557802765, -83.59375 -60 M-83.59375 60 C-83.59375 16.00663766982366, -83.59375 -27.986724660352678, -83.59375 -60" stroke="#9370DB" stroke-width="1.3" fill="none" stroke-dasharray="0 0" style=""/></g><g class="annotation-group text" transform="translate(0, -36)"/><g class="label-group text" transform="translate(-57.359375, -36)"><g class="label" style="font-weight: bolder" transform="translate(0,-12)"><foreignObject width="114.71875" height="24"><div xmlns="http://www.w3.org/1999/xhtml" style="display: table-cell; white-space: nowrap; line-height: 1.5; max-width: 146px; text-align: center;"><span class="nodeLabel markdown-node-label" style=""><p>SqliteDatabase</p></span></div></foreignObject></g></g><g class="members-group text" transform="translate(-71.59375, 12)"><g class="label" style="" transform="translate(0,-12)"><foreignObject width="85.828125" height="24"><div xmlns="http://www.w3.org/1999/xhtml" style="display: table-cell; white-space: nowrap; line-height: 1.5; max-width: 131px; text-align: center;"><span class="nodeLabel markdown-node-label" style=""><p>+tasks table</p></span></div></foreignObject></g></g><g class="methods-group text" transform="translate(-71.59375, 60)"/><g class="divider" style=""><path d="M-83.59375 -12 C-37.268231861371696 -11.999722912788704, 9.057286277256608 -11.999445825577407, 83.59375 -11.999 M-83.59375 -12 C-24.171943308643215 -11.999644579847828, 35.24986338271357 -11.999289159695655, 83.59375 -11.999" stroke="#9370DB" stroke-width="1.3" fill="none" stroke-dasharray="0 0" style=""/></g><g class="divider" style=""><path d="M-83.59375 36 C-45.42667800753329 36.00022828902874, -7.259606015066581 36.00045657805748, 83.59375 36.001 M-83.59375 36 C-18.39904556961224 36.00038994963398, 46.79565886077552 36.000779899267954, 83.59375 36.001" stroke="#9370DB" stroke-width="1.3" fill="none" stroke-dasharray="0 0" style=""/></g></g></g></g></g><defs><filter id="my-svg-drop-shadow" height="130%" width="130%"><feDropShadow dx="4" dy="4" stdDeviation="0" flood-opacity="0.06" flood-color="#000000"/></filter></defs><defs><filter id="my-svg-drop-shadow-small" height="150%" width="150%"><feDropShadow dx="2" dy="2" stdDeviation="0" flood-opacity="0.06" flood-color="#000000"/></filter></defs></svg>