<svg id="my-svg" width="100%" xmlns="http://www.w3.org/2000/svg" xmlns:xlink="http://www.w3.org/1999/xlink" class="classDiagram" style="max-width: 1081.04px; background-color: transparent;" viewBox="0 0 1081.0390625 613" role="graphics-document document" aria-roledescription="class"><style>#my-svg{font-family:"trebuchet ms",verdana,arial,sans-serif;font-size:16px;fill:#333;}@keyframes edge-animation-frame{from{stroke-dashoffset:0;}}@keyframes dash{to{stroke-dashoffset:0;}}#my-svg .edge-animation-slow{stroke-dasharray:9,5!important;stroke-dashoffset:900;animation:dash 50s linear infinite;stroke-linecap:round;}#my-svg .edge-animation-fast{stroke-dasharray:9,5!important;stroke-dashoffset:900;animation:dash 20s linear infinite;stroke-linecap:round;}#my-svg .error-icon{fill:#552222;}#my-svg .error-text{fill:#552222;stroke:#552222;}#my-svg .edge-thickness-normal{stroke-width:1px;}#my-svg .edge-thickness-thick{stroke-width:3.5px;}#my-svg .edge-pattern-solid{stroke-dasharray:0;}#my-svg .edge-thickness-invisible{stroke-width:0;fill:none;}#my-svg .edge-pattern-dashed{stroke-dasharray:3;}#my-svg .edge-pattern-dotted{stroke-dasharray:2;}#my-svg .marker{fill:#333333;stroke:#333333;}#my-svg .marker.cross{stroke:#333333;}#my-svg svg{font-family:"trebuchet ms",verdana,arial,sans-serif;font-size:16px;}#my-svg p{margin:0;}#my-svg g.classGroup text{fill:#9370DB;stroke:none;font-family:"trebuchet ms",verdana,arial,sans-serif;font-size:10px;}#my-svg g.classGroup text .title{font-weight:bolder;}#my-svg .cluster-label text{fill:#333;}#my-svg .cluster-label span{color:#333;}#my-svg .cluster-label span p{background-color:transparent;}#my-svg .cluster rect{fill:#ffffde;stroke:#aaaa33;stroke-width:1px;}#my-svg .cluster text{fill:#333;}#my-svg .cluster span{color:#333;}#my-svg .nodeLabel,#my-svg .edgeLabel{color:#131300;}#my-svg .noteLabel .nodeLabel,#my-svg .noteLabel .edgeLabel{color:black;}#my-svg .edgeLabel .label rect{fill:#ECECFF;}#my-svg .label text{fill:#131300;}#my-svg .labelBkg{background:#ECECFF;}#my-svg .edgeLabel .label span{background:#ECECFF;}#my-svg .classTitle{font-weight:bolder;}#my-svg .node rect,#my-svg .node circle,#my-svg .node ellipse,#my-svg .node polygon,#my-svg .node path{fill:#ECECFF;stroke:#9370DB;stroke-width:1;}#my-svg .divider{stroke:#9370DB;stroke-width:1;}#my-svg g.clickable{cursor:pointer;}#my-svg g.classGroup rect{fill:#ECECFF;stroke:#9370DB;}#my-svg g.classGroup line{stroke:#9370DB;stroke-width:1;}#my-svg .classLabel .box{stroke:none;stroke-width:0;fill:#ECECFF;opacity:0.5;}#my-svg .classLabel .label{fill:#9370DB;font-size:10px;}#my-svg .relation{stroke:#333333;stroke-width:1;fill:none;}#my-svg .dashed-line{stroke-dasharray:3;}#my-svg .dotted-line{stroke-dasharray:1 2;}#my-svg [id$="-compositionStart"],#my-svg .composition{fill:#333333!important;stroke:#333333!important;stroke-width:1;}#my-svg [id$="-compositionEnd"],#my-svg .composition{fill:#333333!important;stroke:#333333!important;stroke-width:1;}#my-svg [id$="-dependencyStart"],#my-svg .dependency{fill:#333333!important;stroke:#333333!important;stroke-width:1;}#my-svg [id$="-dependencyEnd"],#my-svg .dependency{fill:#333333!important;stroke:#333333!important;stroke-width:1;}#my-svg [id$="-extensionStart"],#my-svg .extension{fill:transparent!important;stroke:#333333!important;stroke-width:1;}#my-svg [id$="-extensionEnd"],#my-svg .extension{fill:transparent!important;stroke:#333333!important;stroke-width:1;}#my-svg [id$="-aggregationStart"],#my-svg .aggregation{fill:transparent!important;stroke:#333333!important;stroke-width:1;}#my-svg [id$="-aggregationEnd"],#my-svg .aggregation{fill:transparent!important;stroke:#333333!important;stroke-width:1;}#my-svg [id$="-lollipopStart"],#my-svg .lollipop{fill:#ECECFF!important;stroke:#333333!important;stroke-width:1;}#my-svg [id$="-lollipopEnd"],#my-svg .lollipop{fill:#ECECFF!important;stroke:#333333!important;stroke-width:1;}#my-svg .edgeTerminals{font-size:11px;line-height:initial;}#my-svg .classTitleText{text-anchor:middle;font-size:18px;fill:#333;}#my-svg .edgeLabel[data-look="neo"]{background-color:rgba(232,232,232, 0.8);text-align:center;}#my-svg .edgeLabel[data-look="neo"] p{background-color:rgba(232,232,232, 0.8);}#my-svg .edgeLabel[data-look="neo"] rect{opacity:0.5;background-color:rgba(232,232,232, 0.8);fill:rgba(232,232,232, 0.8);}#my-svg .label-icon{display:inline-block;height:1em;overflow:visible;vertical-align:-0.125em;}#my-svg .node .label-icon path{fill:currentColor;stroke:revert;stroke-width:revert;}#my-svg .node .neo-node{stroke:#9370DB;}#my-svg [data-look="neo"].node rect,#my-svg [data-look="neo"].cluster rect,#my-svg [data-look="neo"].node polygon{stroke:#9370DB;filter:drop-shadow(1px 2px 2px rgba(185, 185, 185, 1));}#my-svg [data-look="neo"].swimlane.cluster rect{filter:none;}#my-svg [data-look="neo"].node path{stroke:#9370DB;stroke-width:1px;}#my-svg [data-look="neo"].node .outer-path{filter:drop-shadow(1px 2px 2px rgba(185, 185, 185, 1));}#my-svg [data-look="neo"].node .neo-line path{stroke:#9370DB;filter:none;}#my-svg [data-look="neo"].node circle{stroke:#9370DB;filter:drop-shadow(1px 2px 2px rgba(185, 185, 185, 1));}#my-svg [data-look="neo"].node circle .state-start{fill:#000000;}#my-svg [data-look="neo"].icon-shape .icon{fill:#9370DB;filter:drop-shadow(1px 2px 2px rgba(185, 185, 185, 1));}#my-svg [data-look="neo"].icon-shape .icon-neo path{stroke:#9370DB;filter:drop-shadow(1px 2px 2px rgba(185, 185, 185, 1));}#my-svg :root{--mermaid-font-family:"trebuchet ms",verdana,arial,sans-serif;}</style><g><defs><marker id="my-svg_class-aggregationStart" class="marker aggregation class" refX="18" refY="7" markerWidth="190" markerHeight="240" orient="auto"><path d="M 18,7 L9,13 L1,7 L9,1 Z"/></marker></defs><defs><marker id="my-svg_class-aggregationEnd" class="marker aggregation class" refX="1" refY="7" markerWidth="20" markerHeight="28" orient="auto"><path d="M 18,7 L9,13 L1,7 L9,1 Z"/></marker></defs><defs><marker id="my-svg_class-aggregationStart-margin" class="marker aggregation class" refX="15" refY="7" markerWidth="190" markerHeight="240" orient="auto" markerUnits="userSpaceOnUse"><path d="M 18,7 L9,13 L1,7 L9,1 Z" style="stroke-width: 2;"/></marker></defs><defs><marker id="my-svg_class-aggregationEnd-margin" class="marker aggregation class" refX="1" refY="7" markerWidth="20" markerHeight="28" orient="auto" markerUnits="userSpaceOnUse"><path d="M 18,7 L9,13 L1,7 L9,1 Z" style="stroke-width: 2;"/></marker></defs><defs><marker id="my-svg_class-extensionStart" class="marker extension class" refX="18" refY="7" markerWidth="20" markerHeight="28" orient="auto" markerUnits="userSpaceOnUse"><path d="M 1,7 L18,13 V 1 Z"/></marker></defs><defs><marker id="my-svg_class-extensionEnd" class="marker extension class" refX="1" refY="7" markerWidth="20" markerHeight="28" orient="auto"><path d="M 1,1 V 13 L18,7 Z"/></marker></defs><marker id="my-svg_class-extensionStart-margin" class="marker extension class" refX="18" refY="7" markerWidth="20" markerHeight="28" orient="auto" markerUnits="userSpaceOnUse" viewBox="0 0 20 14"><polygon points="10,7 18,13 18,1" style="stroke-width: 2; stroke-dasharray: 0;"/></marker><defs><marker id="my-svg_class-extensionEnd-margin" class="marker extension class" refX="9" refY="7" markerWidth="20" markerHeight="28" orient="auto" markerUnits="userSpaceOnUse" viewBox="0 0 20 14"><polygon points="10,1 10,13 18,7" style="stroke-width: 2; stroke-dasharray: 0;"/></marker></defs><defs><marker id="my-svg_class-compositionStart" class="marker composition class" refX="18" refY="7" markerWidth="190" markerHeight="240" orient="auto"><path d="M 18,7 L9,13 L1,7 L9,1 Z"/></marker></defs><defs><marker id="my-svg_class-compositionEnd" class="marker composition class" refX="1" refY="7" markerWidth="20" markerHeight="28" orient="auto"><path d="M 18,7 L9,13 L1,7 L9,1 Z"/></marker></defs><defs><marker id="my-svg_class-compositionStart-margin" class="marker composition class" refX="15" refY="7" markerWidth="190" markerHeight="240" orient="auto" markerUnits="userSpaceOnUse"><path viewBox="0 0 15 15" d="M 18,7 L9,13 L1,7 L9,1 Z" style="stroke-width: 0;"/></marker></defs><defs><marker id="my-svg_class-compositionEnd-margin" class="marker composition class" refX="3.5" refY="7" markerWidth="20" markerHeight="28" orient="auto" markerUnits="userSpaceOnUse"><path d="M 18,7 L9,13 L1,7 L9,1 Z" style="stroke-width: 0;"/></marker></defs><defs><marker id="my-svg_class-dependencyStart" class="marker dependency class" refX="6" refY="7" markerWidth="190" markerHeight="240" orient="auto"><path d="M 5,7 L9,13 L1,7 L9,1 Z"/></marker></defs><defs><marker id="my-svg_class-dependencyEnd" class="marker dependency class" refX="13" refY="7" markerWidth="20" markerHeight="28" orient="auto"><path d="M 18,7 L9,13 L14,7 L9,1 Z"/></marker></defs><defs><marker id="my-svg_class-dependencyStart-margin" class="marker dependency class" refX="4" refY="7" markerWidth="190" markerHeight="240" orient="auto" markerUnits="userSpaceOnUse"><path d="M 5,7 L9,13 L1,7 L9,1 Z" style="stroke-width: 0;"/></marker></defs><defs><marker id="my-svg_class-dependencyEnd-margin" class="marker dependency class" refX="16" refY="7" markerWidth="20" markerHeight="28" orient="auto" markerUnits="userSpaceOnUse"><path d="M 18,7 L9,13 L14,7 L9,1 Z" style="stroke-width: 0;"/></marker></defs><defs><marker id="my-svg_class-lollipopStart" class="marker lollipop class" refX="13" refY="7" markerWidth="190" markerHeight="240" orient="auto"><circle fill="transparent" cx="7" cy="7" r="6"/></marker></defs><defs><marker id="my-svg_class-lollipopEnd" class="marker lollipop class" refX="1" refY="7" markerWidth="190" markerHeight="240" orient="auto"><circle fill="transparent" cx="7" cy="7" r="6"/></marker></defs><defs><marker id="my-svg_class-lollipopStart-margin" class="marker lollipop class" refX="13" refY="7" markerWidth="190" markerHeight="240" orient="auto" markerUnits="userSpaceOnUse"><circle fill="transparent" cx="7" cy="7" r="6" stroke-width="2"/></marker></defs><defs><marker id="my-svg_class-lollipopEnd-margin" class="marker lollipop class" refX="1" refY="7" markerWidth="190" markerHeight="240" orient="auto" markerUnits="userSpaceOnUse"><circle fill="transparent" cx="7" cy="7" r="6" stroke-width="2"/></marker></defs><g class="root"><g class="clusters"/><g class="edgePaths"><path d="M243.656,481.972L251.307,487.977C258.958,493.982,274.26,505.991,288.563,511.995C302.865,518,316.167,518,322.818,518L329.469,518" id="my-svg-id_ExpressApp_TaskValidation_1" class="edge-thickness-normal edge-pattern-dashed relation" style=";;;" data-edge="true" data-et="edge" data-id="id_ExpressApp_TaskValidation_1" data-points="W3sieCI6MjQzLjY1NjI1LCJ5Ijo0ODEuOTcyNDIxMDMyNTQxMjZ9LHsieCI6Mjg5LjU2MjUsInkiOjUxOH0seyJ4IjozMzUuNDY4NzUsInkiOjUxOH1d" data-look="classic" marker-end="url(#my-svg_class-dependencyEnd)"/><path d="M243.656,297.028L251.307,291.023C258.958,285.018,274.26,273.009,300.198,267.005C326.135,261,362.708,261,380.995,261L399.281,261" id="my-svg-id_ExpressApp_TaskRepository_2" class="edge-thickness-normal edge-pattern-solid relation" style=";;;" data-edge="true" data-et="edge" data-id="id_ExpressApp_TaskRepository_2" data-points="W3sieCI6MjQzLjY1NjI1LCJ5IjoyOTcuMDI3NTc4OTY3NDU4NzR9LHsieCI6Mjg5LjU2MjUsInkiOjI2MX0seyJ4Ijo0MDUuMjgxMjUsInkiOjI2MX1d" data-look="classic" marker-end="url(#my-svg_class-dependencyEnd)"/><path d="M672.836,202.292L696.493,191.91C720.151,181.528,767.466,160.764,802.146,150.382C836.826,140,858.87,140,869.892,140L880.914,140" id="my-svg-id_TaskRepository_Task_3" class="edge-thickness-normal edge-pattern-solid relation" style=";;;" data-edge="true" data-et="edge" data-id="id_TaskRepository_Task_3" data-points="W3sieCI6NjcyLjgzNTkzNzUsInkiOjIwMi4yOTIyNDMzOTQ0ODg5fSx7IngiOjgxNC43ODEyNSwieSI6MTQwfSx7IngiOjg4Ni45MTQwNjI1LCJ5IjoxNDB9XQ==" data-look="classic" marker-end="url(#my-svg_class-dependencyEnd)"/><path d="M672.836,319.708L696.493,330.09C720.151,340.472,767.466,361.236,803.724,371.618C839.982,382,865.182,382,877.783,382L890.383,382" id="my-svg-id_TaskRepository_SqliteDatabase_4" class="edge-thickness-normal edge-pattern-solid relation" style=";;;" data-edge="true" data-et="edge" data-id="id_TaskRepository_SqliteDatabase_4" data-points="W3sieCI6NjcyLjgzNTkzNzUsInkiOjMxOS43MDc3NTY2MDU1MTEwN30seyJ4Ijo4MTQuNzgxMjUsInkiOjM4Mn0seyJ4Ijo4OTYuMzgyODEyNSwieSI6MzgyfV0=" data-look="classic" marker-end="url(#my-svg_class-dependencyEnd)"/></g><g class="edgeLabels"><g class="edgeLabel" transform="translate(289.5625, 518)"><g class="label" data-id="id_ExpressApp_TaskValidation_1" transform="translate(-20.90625, -12)"><foreignObject width="41.8125" height="24"><div xmlns="http://www.w3.org/1999/xhtml" class="labelBkg" style="display: table-cell; white-space: nowrap; line-height: 1.5; max-width: 200px; text-align: center;"><span class="edgeLabel"><p>valida</p></span></div></foreignObject></g></g><g class="edgeLabel" transform="translate(289.5625, 261)"><g class="label" data-id="id_ExpressApp_TaskRepository_2" transform="translate(-20.453125, -12)"><foreignObject width="40.90625" height="24"><div xmlns="http://www.w3.org/1999/xhtml" class="labelBkg" style="display: table-cell; white-space: nowrap; line-height: 1.5; max-width: 200px; text-align: center;"><span class="edgeLabel"><p>utiliza</p></span></div></foreignObject></g></g><g class="edgeLabel" transform="translate(814.78125, 140)"><g class="label" data-id="id_TaskRepository_Task_3" transform="translate(-47.1328125, -12)"><foreignObject width="94.265625" height="24"><div xmlns="http://www.w3.org/1999/xhtml" class="labelBkg" style="display: table-cell; white-space: nowrap; line-height: 1.5; max-width: 200px; text-align: center;"><span class="edgeLabel"><p>cria e retorna</p></span></div></foreignObject></g></g><g class="edgeLabel" transform="translate(814.78125, 382)"><g class="label" data-id="id_TaskRepository_SqliteDatabase_4" transform="translate(-28.015625, -12)"><foreignObject width="56.03125" height="24"><div xmlns="http://www.w3.org/1999/xhtml" class="labelBkg" style="display: table-cell; white-space: nowrap; line-height: 1.5; max-width: 200px; text-align: center;"><span class="edgeLabel"><p>persiste</p></span></div></foreignObject></g></g></g><g class="nodes"><g class="node default" id="my-svg-classId-Task-0" data-look="classic" transform="translate(979.9765625, 140)"><g class="basic label-container outer-path"><path d="M-93.0625 -132 L93.0625 -132 L93.0625 132 L-93.0625 132" stroke="none" stroke-width="0" fill="#ECECFF" style=""/><path d="M-93.0625 -132 C-39.55417179152386 -132, 13.954156416952273 -132, 93.0625 -132 M-93.0625 -132 C-49.429818644199536 -132, -5.797137288399071 -132, 93.0625 -132 M93.0625 -132 C93.0625 -52.79841066353731, 93.0625 26.403178672925378, 93.0625 132 M93.0625 -132 C93.0625 -78.63871221116325, 93.0625 -25.277424422326504, 93.0625 132 M93.0625 132 C19.500171586003248 132, -54.062156827993505 132, -93.0625 132 M93.0625 132 C27.213868454774257 132, -38.634763090451486 132, -93.0625 132 M-93.0625 132 C-93.0625 40.115233541837696, -93.0625 -51.76953291632461, -93.0625 -132 M-93.0625 132 C-93.0625 36.25234651546805, -93.0625 -59.495306969063904, -93.0625 -132" stroke="#9370DB" stroke-width="1.3" fill="none" stroke-dasharray="0 0" style=""/></g><g class="annotation-group text" transform="translate(0, -108)"/><g class="label-group text" transform="translate(-17.640625, -108)"><g class="label" style="font-weight: bolder" transform="translate(0,-12)"><foreignObject width="35.28125" height="24"><div xmlns="http://www.w3.org/1999/xhtml" style="display: table-cell; white-space: nowrap; line-height: 1.5; max-width: 80px; text-align: center;"><span class="nodeLabel markdown-node-label" style=""><p>Task</p></span></div></foreignObject></g></g><g class="members-group text" transform="translate(-81.0625, -60)"><g class="label" style="" transform="translate(0,-12)"><foreignObject width="80.5" height="24"><div xmlns="http://www.w3.org/1999/xhtml" style="display: table-cell; white-space: nowrap; line-height: 1.5; max-width: 129px; text-align: center;"><span class="nodeLabel markdown-node-label" style=""><p>+number id</p></span></div></foreignObject></g><g class="label" style="" transform="translate(0,12)"><foreignObject width="77.8125" height="24"><div xmlns="http://www.w3.org/1999/xhtml" style="display: table-cell; white-space: nowrap; line-height: 1.5; max-width: 129px; text-align: center;"><span class="nodeLabel markdown-node-label" style=""><p>+string title</p></span></div></foreignObject></g><g class="label" style="" transform="translate(0,36)"><foreignObject width="130.296875" height="24"><div xmlns="http://www.w3.org/1999/xhtml" style="display: table-cell; white-space: nowrap; line-height: 1.5; max-width: 175px; text-align: center;"><span class="nodeLabel markdown-node-label" style=""><p>+string description</p></span></div></foreignObject></g><g class="label" style="" transform="translate(0,60)"><foreignObject width="134.734375" height="24"><div xmlns="http://www.w3.org/1999/xhtml" style="display: table-cell; white-space: nowrap; line-height: 1.5; max-width: 173px; text-align: center;"><span class="nodeLabel markdown-node-label" style=""><p>+TaskStatus status</p></span></div></foreignObject></g><g class="label" style="" transform="translate(0,84)"><foreignObject width="144.484375" height="24"><div xmlns="http://www.w3.org/1999/xhtml" style="display: table-cell; white-space: nowrap; line-height: 1.5; max-width: 194px; text-align: center;"><span class="nodeLabel markdown-node-label" style=""><p>+TaskPriority priority</p></span></div></foreignObject></g><g class="label" style="" transform="translate(0,108)"><foreignObject width="121.40625" height="24"><div xmlns="http://www.w3.org/1999/xhtml" style="display: table-cell; white-space: nowrap; line-height: 1.5; max-width: 167px; text-align: center;"><span class="nodeLabel markdown-node-label" style=""><p>+string createdAt</p></span></div></foreignObject></g><g class="label" style="" transform="translate(0,132)"><foreignObject width="125.875" height="24"><div xmlns="http://www.w3.org/1999/xhtml" style="display: table-cell; white-space: nowrap; line-height: 1.5; max-width: 171px; text-align: center;"><span class="nodeLabel markdown-node-label" style=""><p>+string updatedAt</p></span></div></foreignObject></g></g><g class="methods-group text" transform="translate(-81.0625, 132)"/><g class="divider" style=""><path d="M-93.0625 -84 C-37.22922740209871 -83.9997000227127, 18.604045195802584 -83.9994000454254, 93.0625 -83.999 M-93.0625 -84 C-51.60077110788939 -83.99977723718527, -10.139042215778787 -83.99955447437053, 93.0625 -83.999" stroke="#9370DB" stroke-width="1.3" fill="none" stroke-dasharray="0 0" style=""/></g><g class="divider" style=""><path d="M-93.0625 108 C-27.07816142942511 108.00035451625827, 38.90617714114978 108.00070903251654, 93.0625 108.001 M-93.0625 108 C-33.291633775663676 108.00032113292801, 26.479232448672647 108.000642265856, 93.0625 108.001" stroke="#9370DB" stroke-width="1.3" fill="none" stroke-dasharray="0 0" style=""/></g></g><g class="node default" id="my-svg-classId-TaskRepository-1" data-look="classic" transform="translate(539.05859375, 261)"><g class="basic label-container outer-path"><path d="M-133.77734375 -120 L133.77734375 -120 L133.77734375 120 L-133.77734375 120" stroke="none" stroke-width="0" fill="#ECECFF" style=""/><path d="M-133.77734375 -120 C-73.72761877437598 -120, -13.677893798751967 -120, 133.77734375 -120 M-133.77734375 -120 C-41.97307565426148 -120, 49.83119244147704 -120, 133.77734375 -120 M133.77734375 -120 C133.77734375 -37.25116757021242, 133.77734375 45.49766485957517, 133.77734375 120 M133.77734375 -120 C133.77734375 -55.0411860310881, 133.77734375 9.917627937823795, 133.77734375 120 M133.77734375 120 C63.518993307164294 120, -6.739357135671412 120, -133.77734375 120 M133.77734375 120 C49.956573594457154 120, -33.86419656108569 120, -133.77734375 120 M-133.77734375 120 C-133.77734375 54.44138238177955, -133.77734375 -11.117235236440905, -133.77734375 -120 M-133.77734375 120 C-133.77734375 71.5978139357405, -133.77734375 23.195627871481022, -133.77734375 -120" stroke="#9370DB" stroke-width="1.3" fill="none" stroke-dasharray="0 0" style=""/></g><g class="annotation-group text" transform="translate(0, -96)"/><g class="label-group text" transform="translate(-59.4296875, -96)"><g class="label" style="font-weight: bolder" transform="translate(0,-12)"><foreignObject width="118.859375" height="24"><div xmlns="http://www.w3.org/1999/xhtml" style="display: table-cell; white-space: nowrap; line-height: 1.5; max-width: 150px; text-align: center;"><span class="nodeLabel markdown-node-label" style=""><p>TaskRepository</p></span></div></foreignObject></g></g><g class="members-group text" transform="translate(-121.77734375, -48)"><g class="label" style="" transform="translate(0,-12)"><foreignObject width="184.125" height="24"><div xmlns="http://www.w3.org/1999/xhtml" style="display: table-cell; white-space: nowrap; line-height: 1.5; max-width: 215px; text-align: center;"><span class="nodeLabel markdown-node-label" style=""><p>-SqliteDatabase database</p></span></div></foreignObject></g></g><g class="methods-group text" transform="translate(-121.77734375, 0)"><g class="label" style="" transform="translate(0,-12)"><foreignObject width="145.109375" height="24"><div xmlns="http://www.w3.org/1999/xhtml" style="display: table-cell; white-space: nowrap; line-height: 1.5; max-width: 187px; text-align: center;"><span class="nodeLabel markdown-node-label" style=""><p>+create(input) : Task</p></span></div></foreignObject></g><g class="label" style="" transform="translate(0,12)"><foreignObject width="118.421875" height="24"><div xmlns="http://www.w3.org/1999/xhtml" style="display: table-cell; white-space: nowrap; line-height: 1.5; max-width: 173px; text-align: center;"><span class="nodeLabel markdown-node-label" style=""><p>+findAll() : Task[]</p></span></div></foreignObject></g><g class="label" style="" transform="translate(0,36)"><foreignObject width="136.21875" height="24"><div xmlns="http://www.w3.org/1999/xhtml" style="display: table-cell; white-space: nowrap; line-height: 1.5; max-width: 186px; text-align: center;"><span class="nodeLabel markdown-node-label" style=""><p>+findById(id) : Task</p></span></div></foreignObject></g><g class="label" style="" transform="translate(0,60)"><foreignObject width="170.921875" height="24"><div xmlns="http://www.w3.org/1999/xhtml" style="display: table-cell; white-space: nowrap; line-height: 1.5; max-width: 212px; text-align: center;"><span class="nodeLabel markdown-node-label" style=""><p>+update(id, input) : Task</p></span></div></foreignObject></g><g class="label" style="" transform="translate(0,84)"><foreignObject width="146.328125" height="24"><div xmlns="http://www.w3.org/1999/xhtml" style="display: table-cell; white-space: nowrap; line-height: 1.5; max-width: 188px; text-align: center;"><span class="nodeLabel markdown-node-label" style=""><p>+delete(id) : boolean</p></span></div></foreignObject></g></g><g class="divider" style=""><path d="M-133.77734375 -72 C-71.05429213190031 -71.99976556922921, -8.331240513800623 -71.99953113845842, 133.77734375 -71.999 M-133.77734375 -72 C-52.831431039927736 -71.99969746030814, 28.114481670144528 -71.9993949206163, 133.77734375 -71.999" stroke="#9370DB" stroke-width="1.3" fill="none" stroke-dasharray="0 0" style=""/></g><g class="divider" style=""><path d="M-133.77734375 -24 C-33.60545576561027 -23.999625602194, 66.56643221877945 -23.999251204388003, 133.77734375 -23.999 M-133.77734375 -24 C-46.39642542157026 -23.999673409129382, 40.98449290685949 -23.999346818258765, 133.77734375 -23.999" stroke="#9370DB" stroke-width="1.3" fill="none" stroke-dasharray="0 0" style=""/></g></g><g class="node default" id="my-svg-classId-TaskValidation-2" data-look="classic" transform="translate(539.05859375, 518)"><g class="basic label-container outer-path"><path d="M-203.58984375 -87 L203.58984375 -87 L203.58984375 87 L-203.58984375 87" stroke="none" stroke-width="0" fill="#ECECFF" style=""/><path d="M-203.58984375 -87 C-103.89587898325169 -87, -4.201914216503383 -87, 203.58984375 -87 M-203.58984375 -87 C-62.122183661035024 -87, 79.34547642792995 -87, 203.58984375 -87 M203.58984375 -87 C203.58984375 -47.69699330521061, 203.58984375 -8.393986610421223, 203.58984375 87 M203.58984375 -87 C203.58984375 -49.53200780472602, 203.58984375 -12.064015609452042, 203.58984375 87 M203.58984375 87 C52.53364454771912 87, -98.52255465456176 87, -203.58984375 87 M203.58984375 87 C48.888322632350565 87, -105.81319848529887 87, -203.58984375 87 M-203.58984375 87 C-203.58984375 45.54839792891889, -203.58984375 4.096795857837776, -203.58984375 -87 M-203.58984375 87 C-203.58984375 49.582963256530725, -203.58984375 12.16592651306145, -203.58984375 -87" stroke="#9370DB" stroke-width="1.3" fill="none" stroke-dasharray="0 0" style=""/></g><g class="annotation-group text" transform="translate(0, -63)"/><g class="label-group text" transform="translate(-55.4296875, -63)"><g class="label" style="font-weight: bolder" transform="translate(0,-12)"><foreignObject width="110.859375" height="24"><div xmlns="http://www.w3.org/1999/xhtml" style="display: table-cell; white-space: nowrap; line-height: 1.5; max-width: 146px; text-align: center;"><span class="nodeLabel markdown-node-label" style=""><p>TaskValidation</p></span></div></foreignObject></g></g><g class="members-group text" transform="translate(-191.58984375, -15)"/><g class="methods-group text" transform="translate(-191.58984375, 15)"><g class="label" style="" transform="translate(0,-12)"><foreignObject width="320.609375" height="24"><div xmlns="http://www.w3.org/1999/xhtml" style="display: table-cell; white-space: nowrap; line-height: 1.5; max-width: 347px; text-align: center;"><span class="nodeLabel markdown-node-label" style=""><p>+validateCreateTask(body) : CreateTaskInput</p></span></div></foreignObject></g><g class="label" style="" transform="translate(0,12)"><foreignObject width="327.75" height="24"><div xmlns="http://www.w3.org/1999/xhtml" style="display: table-cell; white-space: nowrap; line-height: 1.5; max-width: 356px; text-align: center;"><span class="nodeLabel markdown-node-label" style=""><p>+validateUpdateTask(body) : UpdateTaskInput</p></span></div></foreignObject></g><g class="label" style="" transform="translate(0,36)"><foreignObject width="212.109375" height="24"><div xmlns="http://www.w3.org/1999/xhtml" style="display: table-cell; white-space: nowrap; line-height: 1.5; max-width: 248px; text-align: center;"><span class="nodeLabel markdown-node-label" style=""><p>+parseTaskId(value) : number</p></span></div></foreignObject></g></g><g class="divider" style=""><path d="M-203.58984375 -39 C-57.655153562750456 -38.999641596340226, 88.27953662449909 -38.999283192680444, 203.58984375 -38.999 M-203.58984375 -39 C-63.97941211571583 -38.999657128201825, 75.63101951856834 -38.99931425640365, 203.58984375 -38.999" stroke="#9370DB" stroke-width="1.3" fill="none" stroke-dasharray="0 0" style=""/></g><g class="divider" style=""><path d="M-203.58984375 -15 C-81.65673576648602 -14.99970054226248, 40.276372217027955 -14.999401084524957, 203.58984375 -14.999 M-203.58984375 -15 C-66.82865083972291 -14.999664125699026, 69.93254207055418 -14.999328251398051, 203.58984375 -14.999" stroke="#9370DB" stroke-width="1.3" fill="none" stroke-dasharray="0 0" style=""/></g></g><g class="node default" id="my-svg-classId-ExpressApp-3" data-look="classic" transform="translate(125.828125, 389.5)"><g class="basic label-container outer-path"><path d="M-117.828125 -108 L117.828125 -108 L117.828125 108 L-117.828125 108" stroke="none" stroke-width="0" fill="#ECECFF" style=""/><path d="M-117.828125 -108 C-47.82355531705335 -108, 22.181014365893304 -108, 117.828125 -108 M-117.828125 -108 C-47.048303232124056 -108, 23.73151853575189 -108, 117.828125 -108 M117.828125 -108 C117.828125 -47.10295742308386, 117.828125 13.794085153832285, 117.828125 108 M117.828125 -108 C117.828125 -53.45347431191228, 117.828125 1.0930513761754383, 117.828125 108 M117.828125 108 C56.84453382380223 108, -4.13905735239554 108, -117.828125 108 M117.828125 108 C23.762457224382814 108, -70.30321055123437 108, -117.828125 108 M-117.828125 108 C-117.828125 61.8540518057349, -117.828125 15.708103611469795, -117.828125 -108 M-117.828125 108 C-117.828125 42.64101945957762, -117.828125 -22.71796108084476, -117.828125 -108" stroke="#9370DB" stroke-width="1.3" fill="none" stroke-dasharray="0 0" style=""/></g><g class="annotation-group text" transform="translate(0, -84)"/><g class="label-group text" transform="translate(-46.6875, -84)"><g class="label" style="font-weight: bolder" transform="translate(0,-12)"><foreignObject width="93.375" height="24"><div xmlns="http://www.w3.org/1999/xhtml" style="display: table-cell; white-space: nowrap; line-height: 1.5; max-width: 128px; text-align: center;"><span class="nodeLabel markdown-node-label" style=""><p>ExpressApp</p></span></div></foreignObject></g></g><g class="members-group text" transform="translate(-105.828125, -36)"><g class="label" style="" transform="translate(0,-12)"><foreignObject width="113.984375" height="24"><div xmlns="http://www.w3.org/1999/xhtml" style="display: table-cell; white-space: nowrap; line-height: 1.5; max-width: 159px; text-align: center;"><span class="nodeLabel markdown-node-label" style=""><p>+GET /api/tasks</p></span></div></foreignObject></g><g class="label" style="" transform="translate(0,12)"><foreignObject width="135.328125" height="24"><div xmlns="http://www.w3.org/1999/xhtml" style="display: table-cell; white-space: nowrap; line-height: 1.5; max-width: 180px; text-align: center;"><span class="nodeLabel markdown-node-label" style=""><p>+GET /api/tasks/:id</p></span></div></foreignObject></g><g class="label" style="" transform="translate(0,36)"><foreignObject width="124.65625" height="24"><div xmlns="http://www.w3.org/1999/xhtml" style="display: table-cell; white-space: nowrap; line-height: 1.5; max-width: 167px; text-align: center;"><span class="nodeLabel markdown-node-label" style=""><p>+POST /api/tasks</p></span></div></foreignObject></g><g class="label" style="" transform="translate(0,60)"><foreignObject width="134.4375" height="24"><div xmlns="http://www.w3.org/1999/xhtml" style="display: table-cell; white-space: nowrap; line-height: 1.5; max-width: 179px; text-align: center;"><span class="nodeLabel markdown-node-label" style=""><p>+PUT /api/tasks/:id</p></span></div></foreignObject></g><g class="label" style="" transform="translate(0,84)"><foreignObject width="164.96875" height="24"><div xmlns="http://www.w3.org/1999/xhtml" style="display: table-cell; white-space: nowrap; line-height: 1.5; max-width: 210px; text-align: center;"><span class="nodeLabel markdown-node-label" style=""><p>+DELETE /api/tasks/:id</p></span></div></foreignObject></g></g><g class="methods-group text" transform="translate(-105.828125, 108)"/><g class="divider" style=""><path d="M-117.828125 -60 C-31.276597025709194 -59.99963272127103, 55.27493094858161 -59.99926544254206, 117.828125 -59.999 M-117.828125 -60 C-65.34926130626229 -59.99977730756687, -12.87039761252457 -59.999554615133746, 117.828125 -59.999" stroke="#9370DB" stroke-width="1.3" fill="none" stroke-dasharray="0 0" style=""/></g><g class="divider" style=""><path d="M-117.828125 84 C-60.691970236318035 84.00024245550357, -3.55581547263607 84.00048491100715, 117.828125 84.001 M-117.828125 84 C-48.32210283514722 84.00029494665287, 21.18391932970556 84.00058989330574, 117.828125 84.001" stroke="#9370DB" stroke-width="1.3" fill="none" stroke-dasharray="0 0" style=""/></g></g><g class="node default" id="my-svg-classId-SqliteDatabase-4" data-look="classic" transform="translate(979.9765625, 382)"><g class="basic label-container outer-path"><path d="M-83.59375 -60 L83.59375 -60 L83.59375 60 L-83.59375 60" stroke="none" stroke-width="0" fill="#ECECFF" style=""/><path d="M-83.59375 -60 C-37.132086648188874 -60, 9.329576703622251 -60, 83.59375 -60 M-83.59375 -60 C-24.06775918175927 -60, 35.45823163648146 -60, 83.59375 -60 M83.59375 -60 C83.59375 -16.38996086475727, 83.59375 27.22007827048546, 83.59375 60 M83.59375 -60 C83.59375 -27.736664759342794, 83.59375 4.526670481314412, 83.59375 60 M83.59375 60 C47.82915256509824 60, 12.064555130196482 60, -83.59375 60 M83.59375 60 C35.744935760046715 60, -12.10387847990657 60, -83.59375 60 M-83.59375 60 C-83.59375 24.94516075347194, -83.59375 -10.109678493056123, -83.59375 -60 M-83.59375 60 C-83.59375 26.650701964060367, -83.59375 -6.698596071879265, -83.59375 -60" stroke="#9370DB" stroke-width="1.3" fill="none" stroke-dasharray="0 0" style=""/></g><g class="annotation-group text" transform="translate(0, -36)"/><g class="label-group text" transform="translate(-57.359375, -36)"><g class="label" style="font-weight: bolder" transform="translate(0,-12)"><foreignObject width="114.71875" height="24"><div xmlns="http://www.w3.org/1999/xhtml" style="display: table-cell; white-space: nowrap; line-height: 1.5; max-width: 146px; text-align: center;"><span class="nodeLabel markdown-node-label" style=""><p>SqliteDatabase</p></span></div></foreignObject></g></g><g class="members-group text" transform="translate(-71.59375, 12)"><g class="label" style="" transform="translate(0,-12)"><foreignObject width="85.828125" height="24"><div xmlns="http://www.w3.org/1999/xhtml" style="display: table-cell; white-space: nowrap; line-height: 1.5; max-width: 131px; text-align: center;"><span class="nodeLabel markdown-node-label" style=""><p>+tasks table</p></span></div></foreignObject></g></g><g class="methods-group text" transform="translate(-71.59375, 60)"/><g class="divider" style=""><path d="M-83.59375 -12 C-40.14552809933965 -11.999740122784893, 3.3026938013207 -11.999480245569787, 83.59375 -11.999 M-83.59375 -12 C-48.29898792744619 -11.999788891142744, -13.004225854892383 -11.999577782285488, 83.59375 -11.999" stroke="#9370DB" stroke-width="1.3" fill="none" stroke-dasharray="0 0" style=""/></g><g class="divider" style=""><path d="M-83.59375 36 C-41.23597793772412 36.00025335489831, 1.121794124551755 36.00050670979663, 83.59375 36.001 M-83.59375 36 C-19.948817482906556 36.00038067997019, 43.69611503418689 36.00076135994039, 83.59375 36.001" stroke="#9370DB" stroke-width="1.3" fill="none" stroke-dasharray="0 0" style=""/></g></g></g></g></g><defs><filter id="my-svg-drop-shadow" height="130%" width="130%"><feDropShadow dx="4" dy="4" stdDeviation="0" flood-opacity="0.06" flood-color="#000000"/></filter></defs><defs><filter id="my-svg-drop-shadow-small" height="150%" width="150%"><feDropShadow dx="2" dy="2" stdDeviation="0" flood-opacity="0.06" flood-color="#000000"/></filter></defs></svg>