<svg id="my-svg" width="100%" xmlns="http://www.w3.org/2000/svg" xmlns:xlink="http://www.w3.org/1999/xlink" class="classDiagram" style="max-width: 1081.04px; background-color: transparent;" viewBox="0 0 1081.0390625 613" role="graphics-document document" aria-roledescription="class"><style>#my-svg{font-family:"trebuchet ms",verdana,arial,sans-serif;font-size:16px;fill:#333;}@keyframes edge-animation-frame{from{stroke-dashoffset:0;}}@keyframes dash{to{stroke-dashoffset:0;}}#my-svg .edge-animation-slow{stroke-dasharray:9,5!important;stroke-dashoffset:900;animation:dash 50s linear infinite;stroke-linecap:round;}#my-svg .edge-animation-fast{stroke-dasharray:9,5!important;stroke-dashoffset:900;animation:dash 20s linear infinite;stroke-linecap:round;}#my-svg .error-icon{fill:#552222;}#my-svg .error-text{fill:#552222;stroke:#552222;}#my-svg .edge-thickness-normal{stroke-width:1px;}#my-svg .edge-thickness-thick{stroke-width:3.5px;}#my-svg .edge-pattern-solid{stroke-dasharray:0;}#my-svg .edge-thickness-invisible{stroke-width:0;fill:none;}#my-svg .edge-pattern-dashed{stroke-dasharray:3;}#my-svg .edge-pattern-dotted{stroke-dasharray:2;}#my-svg .marker{fill:#333333;stroke:#333333;}#my-svg .marker.cross{stroke:#333333;}#my-svg svg{font-family:"trebuchet ms",verdana,arial,sans-serif;font-size:16px;}#my-svg p{margin:0;}#my-svg g.classGroup text{fill:#9370DB;stroke:none;font-family:"trebuchet ms",verdana,arial,sans-serif;font-size:10px;}#my-svg g.classGroup text .title{font-weight:bolder;}#my-svg .cluster-label text{fill:#333;}#my-svg .cluster-label span{color:#333;}#my-svg .cluster-label span p{background-color:transparent;}#my-svg .cluster rect{fill:#ffffde;stroke:#aaaa33;stroke-width:1px;}#my-svg .cluster text{fill:#333;}#my-svg .cluster span{color:#333;}#my-svg .nodeLabel,#my-svg .edgeLabel{color:#131300;}#my-svg .noteLabel .nodeLabel,#my-svg .noteLabel .edgeLabel{color:black;}#my-svg .edgeLabel .label rect{fill:#ECECFF;}#my-svg .label text{fill:#131300;}#my-svg .labelBkg{background:#ECECFF;}#my-svg .edgeLabel .label span{background:#ECECFF;}#my-svg .classTitle{font-weight:bolder;}#my-svg .node rect,#my-svg .node circle,#my-svg .node ellipse,#my-svg .node polygon,#my-svg .node path{fill:#ECECFF;stroke:#9370DB;stroke-width:1;}#my-svg .divider{stroke:#9370DB;stroke-width:1;}#my-svg g.clickable{cursor:pointer;}#my-svg g.classGroup rect{fill:#ECECFF;stroke:#9370DB;}#my-svg g.classGroup line{stroke:#9370DB;stroke-width:1;}#my-svg .classLabel .box{stroke:none;stroke-width:0;fill:#ECECFF;opacity:0.5;}#my-svg .classLabel .label{fill:#9370DB;font-size:10px;}#my-svg .relation{stroke:#333333;stroke-width:1;fill:none;}#my-svg .dashed-line{stroke-dasharray:3;}#my-svg .dotted-line{stroke-dasharray:1 2;}#my-svg [id$="-compositionStart"],#my-svg .composition{fill:#333333!important;stroke:#333333!important;stroke-width:1;}#my-svg [id$="-compositionEnd"],#my-svg .composition{fill:#333333!important;stroke:#333333!important;stroke-width:1;}#my-svg [id$="-dependencyStart"],#my-svg .dependency{fill:#333333!important;stroke:#333333!important;stroke-width:1;}#my-svg [id$="-dependencyEnd"],#my-svg .dependency{fill:#333333!important;stroke:#333333!important;stroke-width:1;}#my-svg [id$="-extensionStart"],#my-svg .extension{fill:transparent!important;stroke:#333333!important;stroke-width:1;}#my-svg [id$="-extensionEnd"],#my-svg .extension{fill:transparent!important;stroke:#333333!important;stroke-width:1;}#my-svg [id$="-aggregationStart"],#my-svg .aggregation{fill:transparent!important;stroke:#333333!important;stroke-width:1;}#my-svg [id$="-aggregationEnd"],#my-svg .aggregation{fill:transparent!important;stroke:#333333!important;stroke-width:1;}#my-svg [id$="-lollipopStart"],#my-svg .lollipop{fill:#ECECFF!important;stroke:#333333!important;stroke-width:1;}#my-svg [id$="-lollipopEnd"],#my-svg .lollipop{fill:#ECECFF!important;stroke:#333333!important;stroke-width:1;}#my-svg .edgeTerminals{font-size:11px;line-height:initial;}#my-svg .classTitleText{text-anchor:middle;font-size:18px;fill:#333;}#my-svg .edgeLabel[data-look="neo"]{background-color:rgba(232,232,232, 0.8);text-align:center;}#my-svg .edgeLabel[data-look="neo"] p{background-color:rgba(232,232,232, 0.8);}#my-svg .edgeLabel[data-look="neo"] rect{opacity:0.5;background-color:rgba(232,232,232, 0.8);fill:rgba(232,232,232, 0.8);}#my-svg .label-icon{display:inline-block;height:1em;overflow:visible;vertical-align:-0.125em;}#my-svg .node .label-icon path{fill:currentColor;stroke:revert;stroke-width:revert;}#my-svg .node .neo-node{stroke:#9370DB;}#my-svg [data-look="neo"].node rect,#my-svg [data-look="neo"].cluster rect,#my-svg [data-look="neo"].node polygon{stroke:#9370DB;filter:drop-shadow(1px 2px 2px rgba(185, 185, 185, 1));}#my-svg [data-look="neo"].swimlane.cluster rect{filter:none;}#my-svg [data-look="neo"].node path{stroke:#9370DB;stroke-width:1px;}#my-svg [data-look="neo"].node .outer-path{filter:drop-shadow(1px 2px 2px rgba(185, 185, 185, 1));}#my-svg [data-look="neo"].node .neo-line path{stroke:#9370DB;filter:none;}#my-svg [data-look="neo"].node circle{stroke:#9370DB;filter:drop-shadow(1px 2px 2px rgba(185, 185, 185, 1));}#my-svg [data-look="neo"].node circle .state-start{fill:#000000;}#my-svg [data-look="neo"].icon-shape .icon{fill:#9370DB;filter:drop-shadow(1px 2px 2px rgba(185, 185, 185, 1));}#my-svg [data-look="neo"].icon-shape .icon-neo path{stroke:#9370DB;filter:drop-shadow(1px 2px 2px rgba(185, 185, 185, 1));}#my-svg :root{--mermaid-font-family:"trebuchet ms",verdana,arial,sans-serif;}</style><g><defs><marker id="my-svg_class-aggregationStart" class="marker aggregation class" refX="18" refY="7" markerWidth="190" markerHeight="240" orient="auto"><path d="M 18,7 L9,13 L1,7 L9,1 Z"/></marker></defs><defs><marker id="my-svg_class-aggregationEnd" class="marker aggregation class" refX="1" refY="7" markerWidth="20" markerHeight="28" orient="auto"><path d="M 18,7 L9,13 L1,7 L9,1 Z"/></marker></defs><defs><marker id="my-svg_class-aggregationStart-margin" class="marker aggregation class" refX="15" refY="7" markerWidth="190" markerHeight="240" orient="auto" markerUnits="userSpaceOnUse"><path d="M 18,7 L9,13 L1,7 L9,1 Z" style="stroke-width: 2;"/></marker></defs><defs><marker id="my-svg_class-aggregationEnd-margin" class="marker aggregation class" refX="1" refY="7" markerWidth="20" markerHeight="28" orient="auto" markerUnits="userSpaceOnUse"><path d="M 18,7 L9,13 L1,7 L9,1 Z" style="stroke-width: 2;"/></marker></defs><defs><marker id="my-svg_class-extensionStart" class="marker extension class" refX="18" refY="7" markerWidth="20" markerHeight="28" orient="auto" markerUnits="userSpaceOnUse"><path d="M 1,7 L18,13 V 1 Z"/></marker></defs><defs><marker id="my-svg_class-extensionEnd" class="marker extension class" refX="1" refY="7" markerWidth="20" markerHeight="28" orient="auto"><path d="M 1,1 V 13 L18,7 Z"/></marker></defs><marker id="my-svg_class-extensionStart-margin" class="marker extension class" refX="18" refY="7" markerWidth="20" markerHeight="28" orient="auto" markerUnits="userSpaceOnUse" viewBox="0 0 20 14"><polygon points="10,7 18,13 18,1" style="stroke-width: 2; stroke-dasharray: 0;"/></marker><defs><marker id="my-svg_class-extensionEnd-margin" class="marker extension class" refX="9" refY="7" markerWidth="20" markerHeight="28" orient="auto" markerUnits="userSpaceOnUse" viewBox="0 0 20 14"><polygon points="10,1 10,13 18,7" style="stroke-width: 2; stroke-dasharray: 0;"/></marker></defs><defs><marker id="my-svg_class-compositionStart" class="marker composition class" refX="18" refY="7" markerWidth="190" markerHeight="240" orient="auto"><path d="M 18,7 L9,13 L1,7 L9,1 Z"/></marker></defs><defs><marker id="my-svg_class-compositionEnd" class="marker composition class" refX="1" refY="7" markerWidth="20" markerHeight="28" orient="auto"><path d="M 18,7 L9,13 L1,7 L9,1 Z"/></marker></defs><defs><marker id="my-svg_class-compositionStart-margin" class="marker composition class" refX="15" refY="7" markerWidth="190" markerHeight="240" orient="auto" markerUnits="userSpaceOnUse"><path viewBox="0 0 15 15" d="M 18,7 L9,13 L1,7 L9,1 Z" style="stroke-width: 0;"/></marker></defs><defs><marker id="my-svg_class-compositionEnd-margin" class="marker composition class" refX="3.5" refY="7" markerWidth="20" markerHeight="28" orient="auto" markerUnits="userSpaceOnUse"><path d="M 18,7 L9,13 L1,7 L9,1 Z" style="stroke-width: 0;"/></marker></defs><defs><marker id="my-svg_class-dependencyStart" class="marker dependency class" refX="6" refY="7" markerWidth="190" markerHeight="240" orient="auto"><path d="M 5,7 L9,13 L1,7 L9,1 Z"/></marker></defs><defs><marker id="my-svg_class-dependencyEnd" class="marker dependency class" refX="13" refY="7" markerWidth="20" markerHeight="28" orient="auto"><path d="M 18,7 L9,13 L14,7 L9,1 Z"/></marker></defs><defs><marker id="my-svg_class-dependencyStart-margin" class="marker dependency class" refX="4" refY="7" markerWidth="190" markerHeight="240" orient="auto" markerUnits="userSpaceOnUse"><path d="M 5,7 L9,13 L1,7 L9,1 Z" style="stroke-width: 0;"/></marker></defs><defs><marker id="my-svg_class-dependencyEnd-margin" class="marker dependency class" refX="16" refY="7" markerWidth="20" markerHeight="28" orient="auto" markerUnits="userSpaceOnUse"><path d="M 18,7 L9,13 L14,7 L9,1 Z" style="stroke-width: 0;"/></marker></defs><defs><marker id="my-svg_class-lollipopStart" class="marker lollipop class" refX="13" refY="7" markerWidth="190" markerHeight="240" orient="auto"><circle fill="transparent" cx="7" cy="7" r="6"/></marker></defs><defs><marker id="my-svg_class-lollipopEnd" class="marker lollipop class" refX="1" refY="7" markerWidth="190" markerHeight="240" orient="auto"><circle fill="transparent" cx="7" cy="7" r="6"/></marker></defs><defs><marker id="my-svg_class-lollipopStart-margin" class="marker lollipop class" refX="13" refY="7" markerWidth="190" markerHeight="240" orient="auto" markerUnits="userSpaceOnUse"><circle fill="transparent" cx="7" cy="7" r="6" stroke-width="2"/></marker></defs><defs><marker id="my-svg_class-lollipopEnd-margin" class="marker lollipop class" refX="1" refY="7" markerWidth="190" markerHeight="240" orient="auto" markerUnits="userSpaceOnUse"><circle fill="transparent" cx="7" cy="7" r="6" stroke-width="2"/></marker></defs><g class="root"><g class="clusters"/><g class="edgePaths"><path d="M243.656,481.972L251.307,487.977C258.958,493.982,274.26,505.991,288.563,511.995C302.865,518,316.167,518,322.818,518L329.469,518" id="my-svg-id_ExpressApp_TaskValidation_1" class="edge-thickness-normal edge-pattern-dashed relation" style=";;;" data-edge="true" data-et="edge" data-id="id_ExpressApp_TaskValidation_1" data-points="W3sieCI6MjQzLjY1NjI1LCJ5Ijo0ODEuOTcyNDIxMDMyNTQxMjZ9LHsieCI6Mjg5LjU2MjUsInkiOjUxOH0seyJ4IjozMzUuNDY4NzUsInkiOjUxOH1d" data-look="classic" marker-end="url(#my-svg_class-dependencyEnd)"/><path d="M243.656,297.028L251.307,291.023C258.958,285.018,274.26,273.009,300.198,267.005C326.135,261,362.708,261,380.995,261L399.281,261" id="my-svg-id_ExpressApp_TaskRepository_2" class="edge-thickness-normal edge-pattern-solid relation" style=";;;" data-edge="true" data-et="edge" data-id="id_ExpressApp_TaskRepository_2" data-points="W3sieCI6MjQzLjY1NjI1LCJ5IjoyOTcuMDI3NTc4OTY3NDU4NzR9LHsieCI6Mjg5LjU2MjUsInkiOjI2MX0seyJ4Ijo0MDUuMjgxMjUsInkiOjI2MX1d" data-look="classic" marker-end="url(#my-svg_class-dependencyEnd)"/><path d="M672.836,202.292L696.493,191.91C720.151,181.528,767.466,160.764,802.146,150.382C836.826,140,858.87,140,869.892,140L880.914,140" id="my-svg-id_TaskRepository_Task_3" class="edge-thickness-normal edge-pattern-solid relation" style=";;;" data-edge="true" data-et="edge" data-id="id_TaskRepository_Task_3" data-points="W3sieCI6NjcyLjgzNTkzNzUsInkiOjIwMi4yOTIyNDMzOTQ0ODg5fSx7IngiOjgxNC43ODEyNSwieSI6MTQwfSx7IngiOjg4Ni45MTQwNjI1LCJ5IjoxNDB9XQ==" data-look="classic" marker-end="url(#my-svg_class-dependencyEnd)"/><path d="M672.836,319.708L696.493,330.09C720.151,340.472,767.466,361.236,803.724,371.618C839.982,382,865.182,382,877.783,382L890.383,382" id="my-svg-id_TaskRepository_SqliteDatabase_4" class="edge-thickness-normal edge-pattern-solid relation" style=";;;" data-edge="true" data-et="edge" data-id="id_TaskRepository_SqliteDatabase_4" data-points="W3sieCI6NjcyLjgzNTkzNzUsInkiOjMxOS43MDc3NTY2MDU1MTEwN30seyJ4Ijo4MTQuNzgxMjUsInkiOjM4Mn0seyJ4Ijo4OTYuMzgyODEyNSwieSI6MzgyfV0=" data-look="classic" marker-end="url(#my-svg_class-dependencyEnd)"/></g><g class="edgeLabels"><g class="edgeLabel" transform="translate(289.5625, 518)"><g class="label" data-id="id_ExpressApp_TaskValidation_1" transform="translate(-20.90625, -12)"><foreignObject width="41.8125" height="24"><div xmlns="http://www.w3.org/1999/xhtml" class="labelBkg" style="display: table-cell; white-space: nowrap; line-height: 1.5; max-width: 200px; text-align: center;"><span class="edgeLabel"><p>valida</p></span></div></foreignObject></g></g><g class="edgeLabel" transform="translate(289.5625, 261)"><g class="label" data-id="id_ExpressApp_TaskRepository_2" transform="translate(-20.453125, -12)"><foreignObject width="40.90625" height="24"><div xmlns="http://www.w3.org/1999/xhtml" class="labelBkg" style="display: table-cell; white-space: nowrap; line-height: 1.5; max-width: 200px; text-align: center;"><span class="edgeLabel"><p>utiliza</p></span></div></foreignObject></g></g><g class="edgeLabel" transform="translate(814.78125, 140)"><g class="label" data-id="id_TaskRepository_Task_3" transform="translate(-47.1328125, -12)"><foreignObject width="94.265625" height="24"><div xmlns="http://www.w3.org/1999/xhtml" class="labelBkg" style="display: table-cell; white-space: nowrap; line-height: 1.5; max-width: 200px; text-align: center;"><span class="edgeLabel"><p>cria e retorna</p></span></div></foreignObject></g></g><g class="edgeLabel" transform="translate(814.78125, 382)"><g class="label" data-id="id_TaskRepository_SqliteDatabase_4" transform="translate(-28.015625, -12)"><foreignObject width="56.03125" height="24"><div xmlns="http://www.w3.org/1999/xhtml" class="labelBkg" style="display: table-cell; white-space: nowrap; line-height: 1.5; max-width: 200px; text-align: center;"><span class="edgeLabel"><p>persiste</p></span></div></foreignObject></g></g></g><g class="nodes"><g class="node default" id="my-svg-classId-Task-0" data-look="classic" transform="translate(979.9765625, 140)"><g class="basic label-container outer-path"><path d="M-93.0625 -132 L93.0625 -132 L93.0625 132 L-93.0625 132" stroke="none" stroke-width="0" fill="#ECECFF" style=""/><path d="M-93.0625 -132 C-44.873007359044045 -132, 3.316485281911909 -132, 93.0625 -132 M-93.0625 -132 C-54.08075113640827 -132, -15.099002272816534 -132, 93.0625 -132 M93.0625 -132 C93.0625 -32.21514040225411, 93.0625 67.56971919549179, 93.0625 132 M93.0625 -132 C93.0625 -74.8509684779525, 93.0625 -17.701936955904998, 93.0625 132 M93.0625 132 C48.537492511947256 132, 4.012485023894513 132, -93.0625 132 M93.0625 132 C46.34158640977696 132, -0.37932718044608293 132, -93.0625 132 M-93.0625 132 C-93.0625 75.65306943953291, -93.0625 19.30613887906584, -93.0625 -132 M-93.0625 132 C-93.0625 41.201734250970546, -93.0625 -49.59653149805891, -93.0625 -132" stroke="#9370DB" stroke-width="1.3" fill="none" stroke-dasharray="0 0" style=""/></g><g class="annotation-group text" transform="translate(0, -108)"/><g class="label-group text" transform="translate(-17.640625, -108)"><g class="label" style="font-weight: bolder" transform="translate(0,-12)"><foreignObject width="35.28125" height="24"><div xmlns="http://www.w3.org/1999/xhtml" style="display: table-cell; white-space: nowrap; line-height: 1.5; max-width: 80px; text-align: center;"><span class="nodeLabel markdown-node-label" style=""><p>Task</p></span></div></foreignObject></g></g><g class="members-group text" transform="translate(-81.0625, -60)"><g class="label" style="" transform="translate(0,-12)"><foreignObject width="80.5" height="24"><div xmlns="http://www.w3.org/1999/xhtml" style="display: table-cell; white-space: nowrap; line-height: 1.5; max-width: 129px; text-align: center;"><span class="nodeLabel markdown-node-label" style=""><p>+number id</p></span></div></foreignObject></g><g class="label" style="" transform="translate(0,12)"><foreignObject width="77.8125" height="24"><div xmlns="http://www.w3.org/1999/xhtml" style="display: table-cell; white-space: nowrap; line-height: 1.5; max-width: 129px; text-align: center;"><span class="nodeLabel markdown-node-label" style=""><p>+string title</p></span></div></foreignObject></g><g class="label" style="" transform="translate(0,36)"><foreignObject width="130.296875" height="24"><div xmlns="http://www.w3.org/1999/xhtml" style="display: table-cell; white-space: nowrap; line-height: 1.5; max-width: 175px; text-align: center;"><span class="nodeLabel markdown-node-label" style=""><p>+string description</p></span></div></foreignObject></g><g class="label" style="" transform="translate(0,60)"><foreignObject width="134.734375" height="24"><div xmlns="http://www.w3.org/1999/xhtml" style="display: table-cell; white-space: nowrap; line-height: 1.5; max-width: 173px; text-align: center;"><span class="nodeLabel markdown-node-label" style=""><p>+TaskStatus status</p></span></div></foreignObject></g><g class="label" style="" transform="translate(0,84)"><foreignObject width="144.484375" height="24"><div xmlns="http://www.w3.org/1999/xhtml" style="display: table-cell; white-space: nowrap; line-height: 1.5; max-width: 194px; text-align: center;"><span class="nodeLabel markdown-node-label" style=""><p>+TaskPriority priority</p></span></div></foreignObject></g><g class="label" style="" transform="translate(0,108)"><foreignObject width="121.40625" height="24"><div xmlns="http://www.w3.org/1999/xhtml" style="display: table-cell; white-space: nowrap; line-height: 1.5; max-width: 167px; text-align: center;"><span class="nodeLabel markdown-node-label" style=""><p>+string createdAt</p></span></div></foreignObject></g><g class="label" style="" transform="translate(0,132)"><foreignObject width="125.875" height="24"><div xmlns="http://www.w3.org/1999/xhtml" style="display: table-cell; white-space: nowrap; line-height: 1.5; max-width: 171px; text-align: center;"><span class="nodeLabel markdown-node-label" style=""><p>+string updatedAt</p></span></div></foreignObject></g></g><g class="methods-group text" transform="translate(-81.0625, 132)"/><g class="divider" style=""><path d="M-93.0625 -84 C-23.22373979554132 -83.99962477496196, 46.61502040891736 -83.99924954992393, 93.0625 -83.999 M-93.0625 -84 C-46.07527761186945 -83.99974755018194, 0.9119447762610946 -83.99949510036386, 93.0625 -83.999" stroke="#9370DB" stroke-width="1.3" fill="none" stroke-dasharray="0 0" style=""/></g><g class="divider" style=""><path d="M-93.0625 108 C-23.161434434693177 108.00037555978813, 46.739631130613645 108.00075111957626, 93.0625 108.001 M-93.0625 108 C-28.523852947533044 108.0003467489432, 36.01479410493391 108.0006934978864, 93.0625 108.001" stroke="#9370DB" stroke-width="1.3" fill="none" stroke-dasharray="0 0" style=""/></g></g><g class="node default" id="my-svg-classId-TaskRepository-1" data-look="classic" transform="translate(539.05859375, 261)"><g class="basic label-container outer-path"><path d="M-133.77734375 -120 L133.77734375 -120 L133.77734375 120 L-133.77734375 120" stroke="none" stroke-width="0" fill="#ECECFF" style=""/><path d="M-133.77734375 -120 C-41.34134947997137 -120, 51.09464479005726 -120, 133.77734375 -120 M-133.77734375 -120 C-51.537540675329254 -120, 30.702262399341492 -120, 133.77734375 -120 M133.77734375 -120 C133.77734375 -41.78570221041498, 133.77734375 36.428595579170036, 133.77734375 120 M133.77734375 -120 C133.77734375 -33.431818544354044, 133.77734375 53.13636291129191, 133.77734375 120 M133.77734375 120 C30.40199381157221 120, -72.97335612685558 120, -133.77734375 120 M133.77734375 120 C40.899312979749084 120, -51.97871779050183 120, -133.77734375 120 M-133.77734375 120 C-133.77734375 43.59197930509167, -133.77734375 -32.81604138981666, -133.77734375 -120 M-133.77734375 120 C-133.77734375 58.40386124420114, -133.77734375 -3.192277511597723, -133.77734375 -120" stroke="#9370DB" stroke-width="1.3" fill="none" stroke-dasharray="0 0" style=""/></g><g class="annotation-group text" transform="translate(0, -96)"/><g class="label-group text" transform="translate(-59.4296875, -96)"><g class="label" style="font-weight: bolder" transform="translate(0,-12)"><foreignObject width="118.859375" height="24"><div xmlns="http://www.w3.org/1999/xhtml" style="display: table-cell; white-space: nowrap; line-height: 1.5; max-width: 150px; text-align: center;"><span class="nodeLabel markdown-node-label" style=""><p>TaskRepository</p></span></div></foreignObject></g></g><g class="members-group text" transform="translate(-121.77734375, -48)"><g class="label" style="" transform="translate(0,-12)"><foreignObject width="184.125" height="24"><div xmlns="http://www.w3.org/1999/xhtml" style="display: table-cell; white-space: nowrap; line-height: 1.5; max-width: 215px; text-align: center;"><span class="nodeLabel markdown-node-label" style=""><p>-SqliteDatabase database</p></span></div></foreignObject></g></g><g class="methods-group text" transform="translate(-121.77734375, 0)"><g class="label" style="" transform="translate(0,-12)"><foreignObject width="145.109375" height="24"><div xmlns="http://www.w3.org/1999/xhtml" style="display: table-cell; white-space: nowrap; line-height: 1.5; max-width: 187px; text-align: center;"><span class="nodeLabel markdown-node-label" style=""><p>+create(input) : Task</p></span></div></foreignObject></g><g class="label" style="" transform="translate(0,12)"><foreignObject width="118.421875" height="24"><div xmlns="http://www.w3.org/1999/xhtml" style="display: table-cell; white-space: nowrap; line-height: 1.5; max-width: 173px; text-align: center;"><span class="nodeLabel markdown-node-label" style=""><p>+findAll() : Task[]</p></span></div></foreignObject></g><g class="label" style="" transform="translate(0,36)"><foreignObject width="136.21875" height="24"><div xmlns="http://www.w3.org/1999/xhtml" style="display: table-cell; white-space: nowrap; line-height: 1.5; max-width: 186px; text-align: center;"><span class="nodeLabel markdown-node-label" style=""><p>+findById(id) : Task</p></span></div></foreignObject></g><g class="label" style="" transform="translate(0,60)"><foreignObject width="170.921875" height="24"><div xmlns="http://www.w3.org/1999/xhtml" style="display: table-cell; white-space: nowrap; line-height: 1.5; max-width: 212px; text-align: center;"><span class="nodeLabel markdown-node-label" style=""><p>+update(id, input) : Task</p></span></div></foreignObject></g><g class="label" style="" transform="translate(0,84)"><foreignObject width="146.328125" height="24"><div xmlns="http://www.w3.org/1999/xhtml" style="display: table-cell; white-space: nowrap; line-height: 1.5; max-width: 188px; text-align: center;"><span class="nodeLabel markdown-node-label" style=""><p>+delete(id) : boolean</p></span></div></foreignObject></g></g><g class="divider" style=""><path d="M-133.77734375 -72 C-72.65978926448872 -71.99977156986088, -11.542234778977445 -71.99954313972178, 133.77734375 -71.999 M-133.77734375 -72 C-61.24168401265605 -71.99972889407988, 11.293975724687897 -71.99945778815976, 133.77734375 -71.999" stroke="#9370DB" stroke-width="1.3" fill="none" stroke-dasharray="0 0" style=""/></g><g class="divider" style=""><path d="M-133.77734375 -24 C-78.70095649952995 -23.999794149047563, -23.624569249059917 -23.99958829809513, 133.77734375 -23.999 M-133.77734375 -24 C-47.85479986411498 -23.99967885988211, 38.06774402177004 -23.99935771976422, 133.77734375 -23.999" stroke="#9370DB" stroke-width="1.3" fill="none" stroke-dasharray="0 0" style=""/></g></g><g class="node default" id="my-svg-classId-TaskValidation-2" data-look="classic" transform="translate(539.05859375, 518)"><g class="basic label-container outer-path"><path d="M-203.58984375 -87 L203.58984375 -87 L203.58984375 87 L-203.58984375 87" stroke="none" stroke-width="0" fill="#ECECFF" style=""/><path d="M-203.58984375 -87 C-111.4254476863722 -87, -19.26105162274439 -87, 203.58984375 -87 M-203.58984375 -87 C-66.70322511112252 -87, 70.18339352775496 -87, 203.58984375 -87 M203.58984375 -87 C203.58984375 -51.3533805209092, 203.58984375 -15.706761041818396, 203.58984375 87 M203.58984375 -87 C203.58984375 -35.868179778853666, 203.58984375 15.263640442292669, 203.58984375 87 M203.58984375 87 C116.42720170963291 87, 29.26455966926582 87, -203.58984375 87 M203.58984375 87 C47.18536266532203 87, -109.21911841935594 87, -203.58984375 87 M-203.58984375 87 C-203.58984375 41.826109114973974, -203.58984375 -3.347781770052052, -203.58984375 -87 M-203.58984375 87 C-203.58984375 25.235594628525675, -203.58984375 -36.52881074294865, -203.58984375 -87" stroke="#9370DB" stroke-width="1.3" fill="none" stroke-dasharray="0 0" style=""/></g><g class="annotation-group text" transform="translate(0, -63)"/><g class="label-group text" transform="translate(-55.4296875, -63)"><g class="label" style="font-weight: bolder" transform="translate(0,-12)"><foreignObject width="110.859375" height="24"><div xmlns="http://www.w3.org/1999/xhtml" style="display: table-cell; white-space: nowrap; line-height: 1.5; max-width: 146px; text-align: center;"><span class="nodeLabel markdown-node-label" style=""><p>TaskValidation</p></span></div></foreignObject></g></g><g class="members-group text" transform="translate(-191.58984375, -15)"/><g class="methods-group text" transform="translate(-191.58984375, 15)"><g class="label" style="" transform="translate(0,-12)"><foreignObject width="320.609375" height="24"><div xmlns="http://www.w3.org/1999/xhtml" style="display: table-cell; white-space: nowrap; line-height: 1.5; max-width: 347px; text-align: center;"><span class="nodeLabel markdown-node-label" style=""><p>+validateCreateTask(body) : CreateTaskInput</p></span></div></foreignObject></g><g class="label" style="" transform="translate(0,12)"><foreignObject width="327.75" height="24"><div xmlns="http://www.w3.org/1999/xhtml" style="display: table-cell; white-space: nowrap; line-height: 1.5; max-width: 356px; text-align: center;"><span class="nodeLabel markdown-node-label" style=""><p>+validateUpdateTask(body) : UpdateTaskInput</p></span></div></foreignObject></g><g class="label" style="" transform="translate(0,36)"><foreignObject width="212.109375" height="24"><div xmlns="http://www.w3.org/1999/xhtml" style="display: table-cell; white-space: nowrap; line-height: 1.5; max-width: 248px; text-align: center;"><span class="nodeLabel markdown-node-label" style=""><p>+parseTaskId(value) : number</p></span></div></foreignObject></g></g><g class="divider" style=""><path d="M-203.58984375 -39 C-120.7128762972078 -38.99979646094833, -37.8359088444156 -38.999592921896664, 203.58984375 -38.999 M-203.58984375 -39 C-61.25143098106912 -38.999650428503344, 81.08698178786176 -38.99930085700668, 203.58984375 -38.999" stroke="#9370DB" stroke-width="1.3" fill="none" stroke-dasharray="0 0" style=""/></g><g class="divider" style=""><path d="M-203.58984375 -15 C-108.73358749708144 -14.999767040795096, -13.877331244162889 -14.999534081590193, 203.58984375 -14.999 M-203.58984375 -15 C-40.8536549160593 -14.999600333234124, 121.8825339178814 -14.999200666468246, 203.58984375 -14.999" stroke="#9370DB" stroke-width="1.3" fill="none" stroke-dasharray="0 0" style=""/></g></g><g class="node default" id="my-svg-classId-ExpressApp-3" data-look="classic" transform="translate(125.828125, 389.5)"><g class="basic label-container outer-path"><path d="M-117.828125 -108 L117.828125 -108 L117.828125 108 L-117.828125 108" stroke="none" stroke-width="0" fill="#ECECFF" style=""/><path d="M-117.828125 -108 C-50.03061140438888 -108, 17.766902191222243 -108, 117.828125 -108 M-117.828125 -108 C-51.18543652961975 -108, 15.4572519407605 -108, 117.828125 -108 M117.828125 -108 C117.828125 -50.502688615729596, 117.828125 6.9946227685408076, 117.828125 108 M117.828125 -108 C117.828125 -33.01960129016082, 117.828125 41.96079741967836, 117.828125 108 M117.828125 108 C70.66058345313975 108, 23.4930419062795 108, -117.828125 108 M117.828125 108 C58.02065053576898 108, -1.7868239284620415 108, -117.828125 108 M-117.828125 108 C-117.828125 53.180910754287694, -117.828125 -1.6381784914246111, -117.828125 -108 M-117.828125 108 C-117.828125 47.639273777434745, -117.828125 -12.72145244513051, -117.828125 -108" stroke="#9370DB" stroke-width="1.3" fill="none" stroke-dasharray="0 0" style=""/></g><g class="annotation-group text" transform="translate(0, -84)"/><g class="label-group text" transform="translate(-46.6875, -84)"><g class="label" style="font-weight: bolder" transform="translate(0,-12)"><foreignObject width="93.375" height="24"><div xmlns="http://www.w3.org/1999/xhtml" style="display: table-cell; white-space: nowrap; line-height: 1.5; max-width: 128px; text-align: center;"><span class="nodeLabel markdown-node-label" style=""><p>ExpressApp</p></span></div></foreignObject></g></g><g class="members-group text" transform="translate(-105.828125, -36)"><g class="label" style="" transform="translate(0,-12)"><foreignObject width="113.984375" height="24"><div xmlns="http://www.w3.org/1999/xhtml" style="display: table-cell; white-space: nowrap; line-height: 1.5; max-width: 159px; text-align: center;"><span class="nodeLabel markdown-node-label" style=""><p>+GET /api/tasks</p></span></div></foreignObject></g><g class="label" style="" transform="translate(0,12)"><foreignObject width="135.328125" height="24"><div xmlns="http://www.w3.org/1999/xhtml" style="display: table-cell; white-space: nowrap; line-height: 1.5; max-width: 180px; text-align: center;"><span class="nodeLabel markdown-node-label" style=""><p>+GET /api/tasks/:id</p></span></div></foreignObject></g><g class="label" style="" transform="translate(0,36)"><foreignObject width="124.65625" height="24"><div xmlns="http://www.w3.org/1999/xhtml" style="display: table-cell; white-space: nowrap; line-height: 1.5; max-width: 167px; text-align: center;"><span class="nodeLabel markdown-node-label" style=""><p>+POST /api/tasks</p></span></div></foreignObject></g><g class="label" style="" transform="translate(0,60)"><foreignObject width="134.4375" height="24"><div xmlns="http://www.w3.org/1999/xhtml" style="display: table-cell; white-space: nowrap; line-height: 1.5; max-width: 179px; text-align: center;"><span class="nodeLabel markdown-node-label" style=""><p>+PUT /api/tasks/:id</p></span></div></foreignObject></g><g class="label" style="" transform="translate(0,84)"><foreignObject width="164.96875" height="24"><div xmlns="http://www.w3.org/1999/xhtml" style="display: table-cell; white-space: nowrap; line-height: 1.5; max-width: 210px; text-align: center;"><span class="nodeLabel markdown-node-label" style=""><p>+DELETE /api/tasks/:id</p></span></div></foreignObject></g></g><g class="methods-group text" transform="translate(-105.828125, 108)"/><g class="divider" style=""><path d="M-117.828125 -60 C-32.50805027052651 -59.99963794690474, 52.81202445894698 -59.99927589380948, 117.828125 -59.999 M-117.828125 -60 C-26.158481210156438 -59.999611002705045, 65.51116257968712 -59.99922200541009, 117.828125 -59.999" stroke="#9370DB" stroke-width="1.3" fill="none" stroke-dasharray="0 0" style=""/></g><g class="divider" style=""><path d="M-117.828125 84 C-34.205531957071955 84.00035484988429, 49.41706108585609 84.00070969976856, 117.828125 84.001 M-117.828125 84 C-61.58575600587217 84.00023866275133, -5.3433870117443405 84.00047732550267, 117.828125 84.001" stroke="#9370DB" stroke-width="1.3" fill="none" stroke-dasharray="0 0" style=""/></g></g><g class="node default" id="my-svg-classId-SqliteDatabase-4" data-look="classic" transform="translate(979.9765625, 382)"><g class="basic label-container outer-path"><path d="M-83.59375 -60 L83.59375 -60 L83.59375 60 L-83.59375 60" stroke="none" stroke-width="0" fill="#ECECFF" style=""/><path d="M-83.59375 -60 C-32.263174764819304 -60, 19.06740047036139 -60, 83.59375 -60 M-83.59375 -60 C-49.219274178625554 -60, -14.844798357251108 -60, 83.59375 -60 M83.59375 -60 C83.59375 -22.241598417573627, 83.59375 15.516803164852746, 83.59375 60 M83.59375 -60 C83.59375 -26.128606520511738, 83.59375 7.742786958976524, 83.59375 60 M83.59375 60 C43.489305144871736 60, 3.3848602897434716 60, -83.59375 60 M83.59375 60 C41.94805674917928 60, 0.30236349835855947 60, -83.59375 60 M-83.59375 60 C-83.59375 25.441507063522266, -83.59375 -9.116985872955468, -83.59375 -60 M-83.59375 60 C-83.59375 34.08128553934421, -83.59375 8.162571078688416, -83.59375 -60" stroke="#9370DB" stroke-width="1.3" fill="none" stroke-dasharray="0 0" style=""/></g><g class="annotation-group text" transform="translate(0, -36)"/><g class="label-group text" transform="translate(-57.359375, -36)"><g class="label" style="font-weight: bolder" transform="translate(0,-12)"><foreignObject width="114.71875" height="24"><div xmlns="http://www.w3.org/1999/xhtml" style="display: table-cell; white-space: nowrap; line-height: 1.5; max-width: 146px; text-align: center;"><span class="nodeLabel markdown-node-label" style=""><p>SqliteDatabase</p></span></div></foreignObject></g></g><g class="members-group text" transform="translate(-71.59375, 12)"><g class="label" style="" transform="translate(0,-12)"><foreignObject width="85.828125" height="24"><div xmlns="http://www.w3.org/1999/xhtml" style="display: table-cell; white-space: nowrap; line-height: 1.5; max-width: 131px; text-align: center;"><span class="nodeLabel markdown-node-label" style=""><p>+tasks table</p></span></div></foreignObject></g></g><g class="methods-group text" transform="translate(-71.59375, 60)"/><g class="divider" style=""><path d="M-83.59375 -12 C-21.272816975228587 -11.999627239279105, 41.04811604954283 -11.999254478558209, 83.59375 -11.999 M-83.59375 -12 C-25.30083464779168 -11.99965133209509, 32.99208070441664 -11.99930266419018, 83.59375 -11.999" stroke="#9370DB" stroke-width="1.3" fill="none" stroke-dasharray="0 0" style=""/></g><g class="divider" style=""><path d="M-83.59375 36 C-31.99894734847129 36.000308604427076, 19.59585530305742 36.000617208854145, 83.59375 36.001 M-83.59375 36 C-44.93643680392421 36.000231221312575, -6.279123607848419 36.00046244262515, 83.59375 36.001" stroke="#9370DB" stroke-width="1.3" fill="none" stroke-dasharray="0 0" style=""/></g></g></g></g></g><defs><filter id="my-svg-drop-shadow" height="130%" width="130%"><feDropShadow dx="4" dy="4" stdDeviation="0" flood-opacity="0.06" flood-color="#000000"/></filter></defs><defs><filter id="my-svg-drop-shadow-small" height="150%" width="150%"><feDropShadow dx="2" dy="2" stdDeviation="0" flood-opacity="0.06" flood-color="#000000"/></filter></defs></svg>